{"glyphs":{"0":{"ha":1111,"x_min":69,"x_max":1042,"o":"m 69 194 l 69 778 q 126 915 69 858 q 264 972 183 972 l 847 972 q 985 915 928 972 q 1042 778 1042 858 l 1042 194 q 985 57 1042 114 q 847 0 928 0 l 264 0 q 126 57 183 0 q 69 194 69 114 m 296 194 l 815 194 q 838 203 829 194 q 847 226 847 213 l 847 746 q 838 769 847 760 q 815 778 829 778 l 296 778 q 273 769 282 778 q 264 746 264 760 l 264 226 q 273 203 264 213 q 296 194 282 194 z "},"1":{"ha":610,"x_min":67,"x_max":539,"o":"m 325 946 q 378 972 344 972 l 507 972 q 530 963 521 972 q 539 940 539 954 l 539 32 q 530 9 539 18 q 507 0 521 0 l 378 0 q 354 9 364 0 q 344 32 344 18 l 344 649 l 315 610 q 264 583 297 583 l 86 583 q 71 592 75 583 q 72 610 67 600 l 325 946 z "},"2":{"ha":1113,"x_min":69,"x_max":1042,"o":"m 69 778 q 126 915 69 858 q 264 972 183 972 l 847 972 q 985 915 928 972 q 1042 778 1042 858 l 1042 533 q 1006 413 1042 468 q 908 333 969 358 l 603 207 q 600 206 601 207 q 604 194 600 197 l 1010 194 q 1033 185 1024 194 q 1042 163 1042 176 l 1042 32 q 1033 9 1042 18 q 1010 0 1024 0 l 101 0 q 78 9 88 0 q 69 32 69 18 l 69 163 q 100 207 69 196 l 817 506 q 847 551 847 518 l 847 746 q 838 769 847 760 q 815 778 829 778 l 296 778 q 273 769 282 778 q 264 746 264 760 l 264 615 q 255 592 264 601 q 232 583 246 583 l 101 583 q 78 592 88 583 q 69 615 69 601 l 69 778 z "},"3":{"ha":1113,"x_min":69,"x_max":1042,"o":"m 69 778 q 126 915 69 858 q 264 972 183 972 l 847 972 q 985 915 928 972 q 1042 778 1042 858 l 1042 651 q 1027 589 1042 624 q 993 535 1013 554 l 944 486 q 993 438 968 461 q 1027 383 1013 418 q 1042 321 1042 349 l 1042 194 q 985 57 1042 114 q 847 0 928 0 l 264 0 q 126 57 183 0 q 69 194 69 114 l 69 260 q 78 283 69 274 q 101 292 88 292 l 232 292 q 255 283 246 292 q 264 260 264 274 l 264 226 q 273 203 264 213 q 296 194 282 194 l 815 194 q 838 203 829 194 q 847 226 847 213 l 847 357 q 838 380 847 371 q 815 389 829 389 l 393 389 q 370 398 379 389 q 361 421 361 407 l 361 551 q 370 574 361 565 q 393 583 379 583 l 815 583 q 838 592 829 583 q 847 615 847 601 l 847 746 q 838 769 847 760 q 815 778 829 778 l 296 778 q 273 769 282 778 q 264 746 264 760 l 264 713 q 255 690 264 699 q 232 681 246 681 l 101 681 q 78 690 88 681 q 69 713 69 699 l 69 778 z "},"4":{"ha":1054,"x_min":53,"x_max":983,"o":"m 279 942 q 296 963 283 954 q 322 972 308 972 l 464 972 q 483 963 476 972 q 486 942 489 956 l 299 419 q 301 399 294 408 q 319 389 308 389 l 757 389 q 780 398 771 389 q 789 421 789 407 l 789 940 q 799 963 789 954 q 821 972 808 972 l 951 972 q 974 963 965 972 q 983 940 983 954 l 983 32 q 974 9 983 18 q 951 0 965 0 l 821 0 q 799 9 808 0 q 789 32 789 18 l 789 163 q 780 185 789 176 q 757 194 771 194 l 218 194 q 93 251 133 194 q 81 389 53 308 q 180 666 114 482 q 279 942 246 850 z "},"5":{"ha":1113,"x_min":69,"x_max":1043,"o":"m 69 939 q 79 963 69 953 q 103 972 89 972 l 1010 972 q 1033 963 1024 972 q 1042 940 1042 954 l 1042 810 q 1033 787 1042 796 q 1010 778 1024 778 l 296 778 q 274 768 282 778 q 264 746 264 758 l 264 615 q 274 592 264 601 q 297 583 283 583 l 847 583 q 985 526 928 583 q 1043 389 1043 469 l 1043 194 q 985 57 1043 114 q 847 0 928 0 l 264 0 q 126 57 183 0 q 69 194 69 114 l 69 260 q 79 283 69 274 q 103 292 89 292 l 232 292 q 255 283 246 292 q 264 260 264 274 l 264 226 q 274 203 264 213 q 297 194 283 194 l 815 194 q 839 203 829 194 q 849 226 849 213 l 849 357 q 839 380 849 371 q 815 389 829 389 l 264 389 q 126 446 183 389 q 69 583 69 503 l 69 939 z "},"6":{"ha":1113,"x_min":69,"x_max":1042,"o":"m 815 583 l 296 583 q 273 574 282 583 q 264 551 264 565 l 264 226 q 273 203 264 213 q 296 194 282 194 l 815 194 q 838 203 829 194 q 847 226 847 213 l 847 551 q 838 574 847 565 q 815 583 829 583 m 89 804 l 196 946 q 247 972 215 972 l 426 972 q 440 964 436 972 q 439 946 444 954 l 332 804 q 331 786 325 796 q 344 778 335 778 l 847 778 q 985 721 928 778 q 1042 583 1042 664 l 1042 194 q 985 57 1042 114 q 847 0 928 0 l 264 0 q 126 57 183 0 q 69 194 69 114 l 69 746 q 89 804 69 778 z "},"7":{"ha":1113,"x_min":69,"x_max":1042,"o":"m 69 940 q 78 963 69 954 q 101 972 88 972 l 1010 972 q 1033 963 1024 972 q 1042 940 1042 954 l 1042 810 q 1021 753 1042 778 l 436 25 q 383 0 415 0 l 199 0 q 185 8 189 0 q 188 25 181 18 l 772 753 q 774 769 778 761 q 760 778 769 778 l 101 778 q 78 787 88 778 q 69 810 69 796 l 69 940 z "},"8":{"ha":1113,"x_min":69,"x_max":1042,"o":"m 296 194 l 815 194 q 838 203 829 194 q 847 226 847 213 l 847 357 q 838 380 847 371 q 815 389 829 389 l 296 389 q 273 380 282 389 q 264 357 264 371 l 264 226 q 273 203 264 213 q 296 194 282 194 m 296 583 l 815 583 q 838 592 829 583 q 847 615 847 601 l 847 746 q 838 769 847 760 q 815 778 829 778 l 296 778 q 273 769 282 778 q 264 746 264 760 l 264 615 q 273 592 264 601 q 296 583 282 583 m 69 194 l 69 321 q 84 383 69 349 q 118 438 99 417 l 167 486 l 118 535 q 84 589 99 554 q 69 651 69 624 l 69 778 q 126 915 69 858 q 264 972 183 972 l 847 972 q 985 915 928 972 q 1042 778 1042 858 l 1042 651 q 1027 590 1042 624 q 993 535 1013 556 l 944 486 l 993 438 q 1027 383 1013 418 q 1042 321 1042 349 l 1042 194 q 985 57 1042 114 q 847 0 928 0 l 264 0 q 126 57 183 0 q 69 194 69 114 z "},"9":{"ha":1113,"x_min":69,"x_max":1042,"o":"m 296 389 l 815 389 q 838 398 829 389 q 847 421 847 407 l 847 746 q 838 769 847 760 q 815 778 829 778 l 296 778 q 273 769 282 778 q 264 746 264 760 l 264 421 q 273 398 264 407 q 296 389 282 389 m 1022 168 l 915 26 q 864 0 896 0 l 685 0 q 671 8 675 0 q 672 26 667 18 l 779 168 q 781 186 786 176 q 767 194 776 194 l 264 194 q 126 251 183 194 q 69 389 69 308 l 69 778 q 126 915 69 858 q 264 972 183 972 l 847 972 q 985 915 928 972 q 1042 778 1042 858 l 1042 226 q 1022 168 1042 194 z "},"ª":{"ha":347,"x_min":0,"x_max":0,"o":""},"¬":{"ha":347,"x_min":0,"x_max":0,"o":""},"­":{"ha":347,"x_min":0,"x_max":0,"o":""},"―":{"ha":347,"x_min":0,"x_max":0,"o":""},"‖":{"ha":347,"x_min":0,"x_max":0,"o":""},"‗":{"ha":347,"x_min":0,"x_max":0,"o":""},"‛":{"ha":347,"x_min":0,"x_max":0,"o":""},"\u0000":{"ha":0,"x_min":0,"x_max":0,"o":""},"\r":{"ha":463,"x_min":0,"x_max":0,"o":""}," ":{"ha":347,"x_min":0,"x_max":0,"o":""},"!":{"ha":333,"x_min":69,"x_max":264,"o":"m 69 940 q 78 963 69 954 q 101 972 88 972 l 232 972 q 254 963 244 972 q 264 940 264 954 l 264 324 q 254 301 264 310 q 232 292 244 292 l 101 292 q 78 301 88 292 q 69 324 69 310 l 69 940 m 69 163 q 78 185 69 175 q 101 194 88 194 l 232 194 q 254 185 244 194 q 264 163 264 175 l 264 32 q 254 9 264 18 q 232 0 244 0 l 101 0 q 78 9 88 0 q 69 32 69 18 l 69 163 z "},"\"":{"ha":624,"x_min":69,"x_max":553,"o":"m 69 514 l 69 940 q 79 963 69 954 q 103 972 89 972 l 231 972 q 254 963 244 972 q 264 940 264 954 l 264 514 q 254 492 264 501 q 231 482 244 482 l 103 482 q 79 492 89 482 q 69 514 69 501 m 360 514 l 360 940 q 369 963 360 954 q 392 972 378 972 l 521 972 q 544 963 535 972 q 553 940 553 954 l 553 514 q 544 492 553 501 q 521 482 535 482 l 392 482 q 369 492 378 482 q 360 514 360 501 z "},"#":{"ha":1111,"x_min":69,"x_max":1042,"o":"m 653 583 l 458 583 l 458 389 l 653 389 l 653 583 m 264 32 l 264 194 l 101 194 q 78 204 88 194 q 69 226 69 214 l 69 357 q 78 380 69 371 q 101 389 88 389 l 264 389 l 264 583 l 101 583 q 78 592 88 583 q 69 615 69 601 l 69 746 q 78 768 69 758 q 101 778 88 778 l 264 778 l 264 940 q 273 963 264 954 q 296 972 282 972 l 425 972 q 449 963 439 972 q 458 940 458 954 l 458 778 l 653 778 l 653 940 q 662 963 653 954 q 685 972 671 972 l 814 972 q 838 963 828 972 q 847 940 847 954 l 847 778 l 1010 778 q 1033 768 1024 778 q 1042 746 1042 758 l 1042 615 q 1033 592 1042 601 q 1010 583 1024 583 l 847 583 l 847 389 l 1010 389 q 1033 380 1024 389 q 1042 357 1042 371 l 1042 226 q 1033 204 1042 214 q 1010 194 1024 194 l 847 194 l 847 32 q 838 9 847 18 q 814 0 828 0 l 685 0 q 662 9 671 0 q 653 32 653 18 l 653 194 l 458 194 l 458 32 q 449 9 458 18 q 425 0 439 0 l 296 0 q 273 9 282 0 q 264 32 264 18 z "},"$":{"ha":1086,"x_min":69,"x_max":1017,"o":"m 794 379 l 638 379 l 638 190 l 794 190 q 817 199 808 190 q 826 222 826 208 l 826 347 q 817 370 826 361 q 794 379 808 379 m 449 758 l 290 758 q 267 749 276 758 q 258 726 258 739 l 258 600 q 267 577 258 586 q 290 568 276 568 l 449 568 l 449 758 m 447 947 l 447 1010 q 458 1033 449 1024 q 479 1042 467 1042 l 606 1042 q 628 1033 619 1042 q 638 1010 638 1024 l 638 947 l 826 947 q 961 892 906 947 q 1015 757 1017 836 l 1015 694 q 1006 672 1015 682 q 985 663 997 663 l 858 663 q 835 672 844 663 q 826 694 826 682 l 826 726 q 817 749 826 739 q 794 758 808 758 l 638 758 l 638 568 l 826 568 q 961 513 906 568 q 1017 378 1017 457 q 1016 284 1017 346 q 1015 190 1015 222 q 960 57 1015 113 q 826 1 906 1 q 638 0 700 1 l 638 -62 q 628 -84 638 -75 q 606 -93 619 -93 l 479 -93 q 457 -84 467 -93 q 447 -62 447 -75 l 447 1 l 258 1 q 125 57 181 1 q 69 190 69 113 l 69 253 q 78 276 69 267 q 101 285 88 285 l 228 285 q 249 276 240 285 q 258 253 258 267 l 258 222 q 267 199 258 208 q 290 190 276 190 l 438 190 q 449 201 449 190 l 449 379 l 258 379 q 125 435 181 379 q 69 568 69 490 l 69 758 q 125 892 69 836 q 258 947 181 947 l 447 947 z "},"%":{"ha":1306,"x_min":69,"x_max":1236,"o":"m 264 972 l 361 972 q 499 915 442 972 q 556 778 556 858 l 556 681 q 499 543 556 600 q 361 486 442 486 l 264 486 q 126 543 183 486 q 69 681 69 600 l 69 778 q 126 915 69 858 q 264 972 183 972 m 199 0 q 181 8 185 0 q 186 26 178 17 q 876 946 644 639 q 928 972 896 972 l 1106 972 q 1123 964 1119 972 q 1119 946 1126 956 q 429 26 604 261 q 376 0 408 0 l 199 0 m 296 778 q 273 769 282 778 q 264 746 264 760 l 264 713 q 273 690 264 699 q 296 681 282 681 l 329 681 q 352 690 343 681 q 361 713 361 699 l 361 746 q 352 769 361 760 q 329 778 343 778 l 296 778 m 944 486 l 1042 486 q 1179 429 1122 486 q 1236 292 1236 372 l 1236 194 q 1179 57 1236 114 q 1042 0 1122 0 l 944 0 q 807 57 864 0 q 750 194 750 114 l 750 292 q 807 429 750 372 q 944 486 864 486 m 976 292 q 953 283 963 292 q 944 260 944 274 l 944 226 q 953 203 944 213 q 976 194 963 194 l 1010 194 q 1032 203 1022 194 q 1042 226 1042 213 l 1042 260 q 1032 283 1042 274 q 1010 292 1022 292 l 976 292 z "},"&":{"ha":1185,"x_min":69,"x_max":1114,"o":"m 515 393 l 294 393 q 272 384 281 393 q 263 361 263 375 l 263 233 q 272 210 263 219 q 294 200 281 200 l 739 200 l 515 393 m 810 779 l 397 779 q 386 771 389 779 q 389 758 381 764 l 588 586 l 778 586 q 831 596 819 586 q 842 650 842 606 l 842 747 q 832 770 842 761 q 810 779 822 779 m 146 972 l 842 972 q 978 916 922 972 q 1035 779 1035 860 l 1035 618 q 1032 554 1035 572 q 978 450 1022 494 q 874 396 933 406 q 811 393 856 393 l 888 328 l 1018 440 q 1074 463 1043 463 l 1100 463 q 1114 449 1114 463 l 1114 283 q 1104 260 1114 269 l 1035 200 l 1104 140 q 1108 131 1108 136 q 1104 122 1108 126 l 988 4 q 967 4 978 -6 q 888 72 904 58 l 836 28 q 779 7 810 7 l 263 7 q 126 64 182 7 q 69 200 69 121 l 69 393 q 125 529 69 472 q 260 586 181 586 q 271 594 269 586 q 268 607 276 601 l 94 758 q 69 811 69 778 l 69 896 q 92 950 69 928 q 146 972 114 972 z "},"'":{"ha":335,"x_min":69,"x_max":264,"o":"m 264 521 q 254 498 264 507 q 232 489 244 489 l 103 489 q 79 498 89 489 q 69 521 69 507 l 69 946 q 79 968 69 958 q 103 978 89 978 l 232 978 q 254 968 244 978 q 264 946 264 958 l 264 521 z "},"(":{"ha":447,"x_min":69,"x_max":378,"o":"m 69 -107 l 69 1072 q 127 1210 69 1153 q 267 1267 185 1267 l 346 1267 q 369 1257 360 1267 q 378 1233 378 1247 l 378 1104 q 369 1081 378 1090 q 346 1072 360 1072 l 296 1072 q 273 1063 282 1072 q 264 1039 264 1053 l 264 -75 q 273 -98 264 -89 q 296 -107 282 -107 l 346 -107 q 369 -117 360 -107 q 378 -140 378 -126 l 378 -269 q 369 -292 378 -282 q 346 -301 360 -301 l 267 -301 q 127 -244 185 -301 q 69 -107 69 -187 z "},")":{"ha":447,"x_min":69,"x_max":378,"o":"m 378 1072 l 378 -107 q 320 -244 378 -187 q 181 -301 263 -301 l 101 -301 q 78 -292 88 -301 q 69 -269 69 -282 l 69 -140 q 78 -117 69 -126 q 101 -107 88 -107 l 151 -107 q 174 -98 165 -107 q 183 -75 183 -89 l 183 1039 q 174 1063 183 1053 q 151 1072 165 1072 l 101 1072 q 78 1081 88 1072 q 69 1104 69 1090 l 69 1233 q 78 1257 69 1247 q 101 1267 88 1267 l 181 1267 q 320 1210 263 1267 q 378 1072 378 1153 z "},"*":{"ha":903,"x_min":71,"x_max":832,"o":"m 588 1235 l 699 1171 q 714 1151 710 1164 q 710 1126 718 1139 l 618 972 l 799 972 q 822 963 813 972 q 832 940 832 953 l 832 810 q 822 788 831 797 q 800 778 813 778 l 619 778 l 713 622 q 714 599 718 613 q 700 579 713 589 l 588 513 q 572 508 581 508 q 543 525 553 508 l 453 681 l 364 525 q 333 511 354 511 q 319 514 328 511 l 207 579 q 194 622 179 594 l 285 779 l 104 778 q 81 788 90 778 q 71 810 71 797 l 72 938 q 82 963 72 953 q 104 972 92 972 l 285 972 l 193 1126 q 190 1150 188 1136 q 204 1171 199 1167 l 317 1235 q 335 1240 328 1240 q 361 1225 353 1240 l 451 1068 l 542 1225 q 569 1240 550 1240 q 588 1235 576 1240 z "},"+":{"ha":747,"x_min":69,"x_max":678,"o":"m 278 222 l 278 401 l 96 401 q 77 411 85 401 q 69 435 69 421 l 69 563 q 77 586 69 576 q 96 596 85 596 l 278 596 l 278 781 q 288 798 278 790 q 311 806 297 806 l 439 806 q 463 798 453 806 q 472 781 472 790 l 472 596 l 653 596 q 678 563 678 596 l 678 435 q 653 401 678 401 l 472 401 l 472 222 q 463 205 472 213 q 439 197 453 197 l 311 197 q 288 205 297 197 q 278 222 278 213 z "},",":{"ha":333,"x_min":69,"x_max":264,"o":"m 69 161 q 78 185 69 175 q 101 194 88 194 l 232 194 q 255 185 246 194 q 264 161 264 175 l 264 32 q 235 -15 264 0 l 69 -97 l 69 161 z "},"-":{"ha":624,"x_min":69,"x_max":553,"o":"m 101 401 q 79 410 89 401 q 69 433 69 419 l 69 564 q 79 587 69 578 q 101 596 89 596 l 521 596 q 544 587 535 596 q 553 564 553 578 l 553 433 q 544 410 553 419 q 521 401 535 401 l 101 401 z "},".":{"ha":333,"x_min":69,"x_max":264,"o":"m 69 32 l 69 163 q 78 185 69 176 q 101 194 88 194 l 232 194 q 255 185 246 194 q 264 163 264 176 l 264 32 q 255 9 264 18 q 232 0 246 0 l 101 0 q 78 9 88 0 q 69 32 69 18 z "},"/":{"ha":1008,"x_min":67,"x_max":942,"o":"m 713 1001 q 771 1036 731 1036 l 917 1036 q 935 1024 928 1036 q 935 1001 942 1013 l 297 -103 q 239 -136 276 -136 l 93 -136 q 74 -125 82 -136 q 74 -103 67 -114 l 713 1001 z "},":":{"ha":333,"x_min":69,"x_max":264,"o":"m 69 810 l 69 940 q 78 963 69 954 q 101 972 88 972 l 232 972 q 255 963 246 972 q 264 940 264 954 l 264 810 q 255 787 264 796 q 232 778 246 778 l 101 778 q 78 787 88 778 q 69 810 69 796 m 69 32 l 69 163 q 78 185 69 176 q 101 194 88 194 l 232 194 q 255 185 246 194 q 264 163 264 176 l 264 32 q 255 9 264 18 q 232 0 246 0 l 101 0 q 78 9 88 0 q 69 32 69 18 z "},";":{"ha":333,"x_min":69,"x_max":264,"o":"m 69 940 q 78 963 69 954 q 101 972 88 972 l 232 972 q 255 963 246 972 q 264 940 264 954 l 264 810 q 255 787 264 796 q 232 778 246 778 l 101 778 q 78 787 88 778 q 69 810 69 796 l 69 940 m 69 161 q 78 185 69 175 q 101 194 88 194 l 232 194 q 255 185 246 194 q 264 161 264 175 l 264 32 q 235 -15 264 0 l 69 -97 l 69 161 z "},"<":{"ha":599,"x_min":57,"x_max":542,"o":"m 382 156 q 231 306 332 206 q 79 457 131 407 q 79 503 57 481 q 383 806 281 704 q 404 815 392 815 q 426 806 417 815 l 517 715 q 518 668 540 692 l 331 479 l 517 293 q 518 246 542 269 l 426 156 q 404 146 418 146 q 382 156 392 146 z "},"=":{"ha":828,"x_min":69,"x_max":758,"o":"m 69 583 l 69 714 q 78 737 69 728 q 101 746 88 746 l 726 746 q 749 737 740 746 q 758 714 758 728 l 758 583 q 749 560 758 569 q 726 551 740 551 l 101 551 q 78 560 88 551 q 69 583 69 569 m 69 249 l 69 379 q 78 402 69 393 q 101 411 88 411 l 726 411 q 749 402 740 411 q 758 379 758 393 l 758 249 q 749 226 758 235 q 726 217 740 217 l 101 217 q 78 226 88 217 q 69 249 69 235 z "},">":{"ha":599,"x_min":58,"x_max":542,"o":"m 519 457 l 217 154 q 194 144 207 144 q 172 154 185 144 l 81 246 q 81 292 58 269 l 268 479 l 81 668 q 81 714 58 692 l 172 806 q 194 815 182 815 q 217 806 208 815 l 519 503 q 519 457 542 481 z "},"?":{"ha":1111,"x_min":69,"x_max":1042,"o":"m 69 776 q 126 915 69 857 q 264 972 183 972 l 846 972 q 984 915 926 972 q 1042 778 1042 858 l 1042 585 q 985 446 1042 503 q 846 389 928 389 l 685 389 q 662 380 671 389 q 653 357 653 371 l 653 324 q 643 301 653 311 q 621 292 633 292 l 490 292 q 467 301 476 292 q 458 324 458 311 l 458 389 q 515 526 458 469 q 653 583 572 583 l 814 583 q 838 593 829 583 q 847 615 847 603 l 847 746 q 838 769 847 760 q 814 778 828 778 l 296 778 q 274 769 283 778 q 264 746 264 760 l 264 615 q 255 592 264 601 q 232 583 246 583 l 103 583 q 79 592 89 583 q 69 615 69 601 l 69 776 m 458 163 q 467 185 458 175 q 490 194 476 194 l 621 194 q 643 185 633 194 q 653 163 653 175 l 653 32 q 643 9 653 18 q 621 0 633 0 l 490 0 q 467 9 476 0 q 458 32 458 18 l 458 163 z "},"@":{"ha":1308,"x_min":71,"x_max":1239,"o":"m 719 590 l 590 590 q 567 581 576 590 q 557 560 557 572 l 557 429 q 567 406 557 415 q 590 396 576 396 l 719 396 q 742 406 733 396 q 751 429 751 415 l 751 560 q 742 581 751 572 q 719 590 733 590 m 71 396 l 71 592 q 213 935 71 793 q 557 1078 356 1078 l 751 1078 q 1096 935 953 1078 q 1239 590 1239 792 l 1239 396 q 1182 258 1239 315 q 1044 201 1125 201 q 801 202 964 201 q 557 203 639 203 q 419 260 476 203 q 361 396 361 317 l 361 590 q 419 730 361 672 q 557 788 476 788 l 751 788 q 889 730 832 788 q 946 590 946 672 l 946 429 q 956 406 946 415 q 979 396 965 396 l 1013 396 q 1035 406 1026 396 q 1044 429 1044 415 l 1044 590 q 958 798 1044 713 q 751 883 872 883 l 557 883 q 351 798 436 883 q 265 592 265 713 l 265 396 q 351 190 265 276 q 557 104 436 104 l 1108 104 q 1132 95 1122 104 q 1142 72 1142 86 l 1142 -58 q 1132 -81 1142 -72 q 1108 -90 1122 -90 l 557 -90 q 213 52 356 -90 q 71 396 71 194 z "},"A":{"ha":1111,"x_min":69,"x_max":1042,"o":"m 815 778 l 296 778 q 273 769 282 778 q 264 746 264 760 l 264 421 q 273 398 264 407 q 296 389 282 389 l 815 389 q 838 398 829 389 q 847 421 847 407 l 847 746 q 838 769 847 760 q 815 778 829 778 m 69 32 l 69 778 q 126 915 69 858 q 264 972 183 972 l 847 972 q 985 915 928 972 q 1042 778 1042 858 l 1042 32 q 1033 9 1042 18 q 1010 0 1024 0 l 879 0 q 856 9 865 0 q 847 32 847 18 l 847 163 q 838 185 847 176 q 815 194 829 194 l 296 194 q 273 185 282 194 q 264 163 264 176 l 264 32 q 255 9 264 18 q 232 0 246 0 l 101 0 q 78 9 88 0 q 69 32 69 18 z "},"B":{"ha":1113,"x_min":69,"x_max":1042,"o":"m 296 194 l 815 194 q 838 203 829 194 q 847 226 847 213 l 847 357 q 838 380 847 371 q 815 389 829 389 l 296 389 q 273 380 282 389 q 264 357 264 371 l 264 226 q 273 203 264 213 q 296 194 282 194 m 296 583 l 815 583 q 838 592 829 583 q 847 615 847 601 l 847 746 q 838 769 847 760 q 815 778 829 778 l 296 778 q 273 769 282 778 q 264 746 264 760 l 264 615 q 273 592 264 601 q 296 583 282 583 m 69 194 l 69 778 q 126 915 69 858 q 264 972 183 972 l 847 972 q 985 915 928 972 q 1042 778 1042 858 l 1042 653 q 993 535 1042 583 l 944 486 l 993 438 q 1042 319 1042 389 l 1042 194 q 985 57 1042 114 q 847 0 928 0 l 264 0 q 126 57 183 0 q 69 194 69 114 z "},"C":{"ha":1015,"x_min":69,"x_max":944,"o":"m 69 194 l 69 778 q 126 915 69 858 q 264 972 183 972 l 913 972 q 935 963 926 972 q 944 940 944 954 l 944 810 q 935 787 944 796 q 913 778 926 778 l 296 778 q 273 769 282 778 q 264 746 264 760 l 264 226 q 273 203 264 213 q 296 194 282 194 l 913 194 q 935 185 926 194 q 944 163 944 176 l 944 32 q 935 9 944 18 q 913 0 926 0 l 264 0 q 126 57 183 0 q 69 194 69 114 z "},"D":{"ha":1113,"x_min":69,"x_max":1042,"o":"m 69 940 q 78 963 69 954 q 101 972 88 972 l 847 972 q 985 915 928 972 q 1042 778 1042 858 l 1042 194 q 985 57 1042 114 q 847 0 928 0 l 101 0 q 78 9 88 0 q 69 32 69 18 l 69 940 m 296 778 q 273 769 282 778 q 264 746 264 760 l 264 226 q 273 203 264 213 q 296 194 282 194 l 815 194 q 838 203 829 194 q 847 226 847 213 l 847 746 q 838 769 847 760 q 815 778 829 778 l 296 778 z "},"E":{"ha":1015,"x_min":69,"x_max":944,"o":"m 69 194 l 69 778 q 126 915 69 858 q 264 972 183 972 l 913 972 q 935 963 926 972 q 944 940 944 954 l 944 810 q 935 787 944 796 q 913 778 926 778 l 296 778 q 273 769 282 778 q 264 746 264 760 l 264 615 q 273 592 264 601 q 296 583 282 583 l 913 583 q 935 574 926 583 q 944 551 944 565 l 944 421 q 935 398 944 407 q 913 389 926 389 l 296 389 q 273 380 282 389 q 264 357 264 371 l 264 226 q 273 203 264 213 q 296 194 282 194 l 913 194 q 935 185 926 194 q 944 163 944 176 l 944 32 q 935 9 944 18 q 913 0 926 0 l 264 0 q 126 57 183 0 q 69 194 69 114 z "},"F":{"ha":1014,"x_min":69,"x_max":944,"o":"m 69 778 q 126 915 69 858 q 264 972 183 972 l 913 972 q 935 963 926 972 q 944 940 944 954 l 944 810 q 935 787 944 796 q 913 778 926 778 l 296 778 q 273 769 282 778 q 264 746 264 760 l 264 615 q 273 592 264 601 q 296 583 282 583 l 815 583 q 838 574 829 583 q 847 551 847 565 l 847 421 q 838 398 847 407 q 815 389 829 389 l 296 389 q 273 380 282 389 q 264 357 264 371 l 264 32 q 255 9 264 18 q 232 0 246 0 l 101 0 q 78 9 88 0 q 69 32 69 18 l 69 778 z "},"G":{"ha":1113,"x_min":69,"x_max":1042,"o":"m 69 778 q 126 915 69 858 q 264 972 183 972 l 913 972 q 935 963 926 972 q 944 940 944 954 l 944 810 q 935 787 944 796 q 913 778 926 778 l 296 778 q 273 769 282 778 q 264 746 264 760 l 264 226 q 273 203 264 213 q 296 194 282 194 l 815 194 q 838 203 829 194 q 847 226 847 213 l 847 357 q 838 380 847 371 q 815 389 829 389 l 490 389 q 467 398 476 389 q 458 421 458 407 l 458 551 q 467 574 458 565 q 490 583 476 583 l 847 583 q 985 526 928 583 q 1042 389 1042 469 l 1042 194 q 985 57 1042 114 q 847 0 928 0 l 264 0 q 126 57 183 0 q 69 194 69 114 l 69 778 z "},"H":{"ha":1113,"x_min":69,"x_max":1042,"o":"m 69 33 l 69 942 q 78 965 69 956 q 101 974 88 974 l 232 974 q 255 965 246 974 q 264 942 264 956 l 264 617 q 273 594 264 603 q 296 585 282 585 l 815 585 q 838 594 829 585 q 847 617 847 603 l 847 942 q 856 965 847 956 q 879 974 865 974 l 1010 974 q 1033 965 1024 974 q 1042 942 1042 956 l 1042 33 q 1033 10 1042 19 q 1010 1 1024 1 l 879 1 q 856 10 865 1 q 847 33 847 19 l 847 358 q 838 381 847 372 q 815 390 829 390 l 296 390 q 273 381 282 390 q 264 358 264 372 l 264 33 q 255 10 264 19 q 232 1 246 1 l 101 1 q 78 10 88 1 q 69 33 69 19 z "},"I":{"ha":333,"x_min":69,"x_max":264,"o":"m 264 32 q 255 9 264 18 q 232 0 246 0 l 101 0 q 78 9 88 0 q 69 32 69 18 l 69 940 q 78 963 69 954 q 101 972 88 972 l 232 972 q 255 963 246 972 q 264 940 264 954 l 264 32 z "},"J":{"ha":1113,"x_min":69,"x_max":1042,"o":"m 847 940 q 856 963 847 954 q 879 972 865 972 l 1010 972 q 1033 963 1024 972 q 1042 940 1042 954 l 1042 194 q 985 57 1042 114 q 847 0 928 0 l 264 0 q 126 57 183 0 q 69 194 69 114 l 69 454 q 78 477 69 468 q 101 486 88 486 l 232 486 q 255 477 246 486 q 264 454 264 468 l 264 226 q 273 203 264 213 q 296 194 282 194 l 815 194 q 838 203 829 194 q 847 226 847 213 l 847 940 z "},"K":{"ha":1094,"x_min":69,"x_max":1025,"o":"m 69 32 l 69 940 q 78 963 69 954 q 101 972 88 972 l 232 972 q 255 963 246 972 q 264 940 264 954 l 264 615 q 273 592 264 601 q 296 583 282 583 l 417 583 q 469 608 450 583 l 764 947 q 817 972 783 972 l 1010 972 q 1022 964 1019 972 q 1021 947 1025 957 l 643 511 q 643 461 621 486 l 1021 25 q 1022 8 1025 15 q 1010 0 1019 0 l 817 0 q 764 25 783 0 l 469 364 q 417 389 450 389 l 296 389 q 273 380 282 389 q 264 357 264 371 l 264 32 q 255 9 264 18 q 232 0 246 0 l 101 0 q 78 9 88 0 q 69 32 69 18 z "},"L":{"ha":1015,"x_min":69,"x_max":944,"o":"m 69 194 l 69 940 q 78 963 69 954 q 101 972 88 972 l 232 972 q 255 963 246 972 q 264 940 264 954 l 264 226 q 273 203 264 213 q 296 194 282 194 l 913 194 q 935 185 926 194 q 944 163 944 176 l 944 32 q 935 9 944 18 q 913 0 926 0 l 264 0 q 126 57 183 0 q 69 194 69 114 z "},"M":{"ha":1500,"x_min":69,"x_max":1431,"o":"m 69 940 q 78 963 69 954 q 101 972 88 972 l 232 972 q 285 947 267 972 l 750 410 q 1215 947 904 589 q 1268 972 1235 972 l 1399 972 q 1422 963 1413 972 q 1431 940 1431 954 l 1431 32 q 1421 9 1431 18 q 1399 0 1411 0 l 1268 0 q 1245 9 1254 0 q 1236 32 1236 18 l 1236 643 q 1230 658 1236 656 q 1215 650 1224 660 q 771 136 1090 507 q 750 126 761 126 q 729 136 739 126 q 285 650 410 507 q 270 658 276 660 q 264 642 264 656 l 264 32 q 255 9 264 18 q 232 0 246 0 l 103 0 q 79 9 89 0 q 69 32 69 18 l 69 940 z "},"N":{"ha":1111,"x_min":69,"x_max":1042,"o":"m 69 32 l 69 940 q 79 963 69 953 q 103 972 89 972 l 232 972 q 286 947 264 972 l 826 322 q 840 318 832 317 q 847 329 847 321 l 847 940 q 857 963 847 953 q 879 972 867 972 l 1010 972 q 1033 963 1024 972 q 1042 940 1042 953 l 1042 32 q 1033 10 1042 19 q 1010 0 1024 0 l 879 0 q 826 25 846 0 q 286 650 632 247 q 270 658 276 660 q 264 642 264 656 l 264 32 q 255 10 264 19 q 232 0 246 0 l 103 0 q 79 10 89 0 q 69 32 69 19 z "},"O":{"ha":1111,"x_min":69,"x_max":1042,"o":"m 69 194 l 69 778 q 126 915 69 858 q 264 972 183 972 l 847 972 q 985 915 928 972 q 1042 778 1042 858 l 1042 194 q 985 57 1042 114 q 847 0 928 0 l 264 0 q 126 57 183 0 q 69 194 69 114 m 296 194 l 815 194 q 838 203 829 194 q 847 226 847 213 l 847 746 q 838 769 847 760 q 815 778 829 778 l 296 778 q 273 769 282 778 q 264 746 264 760 l 264 226 q 273 203 264 213 q 296 194 282 194 z "},"P":{"ha":1113,"x_min":69,"x_max":1042,"o":"m 815 778 l 296 778 q 273 769 282 778 q 264 746 264 760 l 264 421 q 273 398 264 407 q 296 389 282 389 l 815 389 q 838 398 829 389 q 847 421 847 407 l 847 746 q 838 769 847 760 q 815 778 829 778 m 69 32 l 69 778 q 126 915 69 858 q 264 972 183 972 l 847 972 q 985 915 928 972 q 1042 778 1042 858 l 1042 389 q 985 251 1042 308 q 847 194 928 194 l 296 194 q 273 185 282 194 q 264 163 264 176 l 264 32 q 255 9 264 18 q 232 0 246 0 l 101 0 q 78 9 88 0 q 69 32 69 18 z "},"Q":{"ha":1113,"x_min":69,"x_max":1139,"o":"m 814 778 l 296 778 q 274 768 283 778 q 264 746 264 758 l 264 226 q 274 203 264 213 q 296 194 283 194 l 814 194 q 838 203 828 194 q 847 226 847 213 l 847 746 q 838 768 847 758 q 814 778 828 778 m 69 194 l 69 778 q 126 915 69 858 q 264 972 183 972 l 847 972 q 984 915 928 972 q 1040 778 1040 858 l 1040 129 q 1050 107 1040 117 q 1074 97 1060 97 l 1106 97 q 1129 88 1119 97 q 1139 65 1139 79 l 1139 -65 q 1129 -88 1139 -79 q 1106 -97 1119 -97 l 976 -97 q 953 -88 963 -97 q 944 -65 944 -79 l 944 -33 q 935 -10 944 -19 q 913 0 925 0 l 264 0 q 126 57 183 0 q 69 194 69 114 z "},"R":{"ha":1113,"x_min":69,"x_max":1042,"o":"m 815 778 l 296 778 q 273 769 282 778 q 264 746 264 760 l 264 421 q 273 398 264 407 q 296 389 282 389 l 815 389 q 838 398 829 389 q 847 421 847 407 l 847 746 q 838 769 847 760 q 815 778 829 778 m 1042 778 l 1042 389 q 985 251 1042 308 q 847 194 928 194 l 782 194 q 769 186 774 194 q 772 172 767 178 l 922 24 q 925 8 926 17 q 913 0 921 0 l 701 0 q 647 24 668 0 l 499 172 q 443 194 474 194 l 296 194 q 273 185 282 194 q 264 163 264 176 l 264 32 q 255 9 264 18 q 232 0 246 0 l 101 0 q 78 9 88 0 q 69 32 69 18 l 69 778 q 126 915 69 858 q 264 972 183 972 l 847 972 q 985 915 928 972 q 1042 778 1042 858 z "},"S":{"ha":1110,"x_min":69,"x_max":1040,"o":"m 69 778 q 126 915 69 858 q 264 972 183 972 l 911 972 q 935 963 925 972 q 944 940 944 953 l 944 810 q 935 787 944 796 q 911 778 925 778 l 296 778 q 273 768 282 778 q 264 746 264 758 l 264 617 q 273 593 264 603 q 296 583 282 583 l 847 583 q 984 526 928 583 q 1040 389 1040 469 l 1040 194 q 984 57 1040 114 q 847 0 928 0 q 482 1 740 0 q 101 1 224 1 q 78 10 88 1 q 69 33 69 19 l 69 163 q 78 185 69 176 q 101 194 88 194 l 814 194 q 838 204 828 194 q 847 228 847 214 l 847 357 q 838 379 847 369 q 814 389 828 389 l 264 389 q 126 446 183 389 q 69 583 69 503 l 69 778 z "},"T":{"ha":1113,"x_min":69,"x_max":1042,"o":"m 69 940 q 78 963 69 954 q 101 972 88 972 l 1010 972 q 1033 963 1024 972 q 1042 940 1042 954 l 1042 810 q 1033 787 1042 796 q 1010 778 1024 778 l 685 778 q 662 769 671 778 q 653 746 653 760 l 653 32 q 644 9 653 18 q 621 0 635 0 l 490 0 q 467 9 476 0 q 458 32 458 18 l 458 746 q 449 769 458 760 q 426 778 440 778 l 101 778 q 78 787 88 778 q 69 810 69 796 l 69 940 z "},"U":{"ha":1113,"x_min":69,"x_max":1042,"o":"m 69 194 l 69 940 q 78 963 69 954 q 101 972 88 972 l 232 972 q 255 963 246 972 q 264 940 264 954 l 264 226 q 273 203 264 213 q 296 194 282 194 l 815 194 q 838 203 829 194 q 847 226 847 213 l 847 940 q 856 963 847 954 q 879 972 865 972 l 1010 972 q 1033 963 1024 972 q 1042 940 1042 954 l 1042 194 q 985 57 1042 114 q 847 0 928 0 l 264 0 q 126 57 183 0 q 69 194 69 114 z "},"V":{"ha":1111,"x_min":67,"x_max":1044,"o":"m 71 940 q 75 963 67 954 q 94 972 82 972 l 233 972 q 275 940 265 972 l 469 226 q 511 194 479 194 l 600 194 q 642 226 632 194 l 836 940 q 878 972 846 972 l 1017 972 q 1036 963 1029 972 q 1040 940 1044 954 l 793 32 q 751 0 786 0 l 360 0 q 318 32 325 0 l 71 940 z "},"W":{"ha":1486,"x_min":67,"x_max":1418,"o":"m 71 940 q 75 963 67 953 q 94 972 82 972 l 231 972 q 272 940 263 972 l 463 226 q 504 194 472 194 l 592 194 q 633 226 624 194 l 633 228 q 633 290 642 260 l 460 940 q 464 963 456 954 q 483 972 471 972 l 619 972 q 661 940 651 972 l 743 635 l 825 940 q 865 972 832 972 l 1001 972 q 1021 963 1014 972 q 1025 940 1029 954 l 851 290 q 851 228 843 260 l 851 226 q 893 194 861 194 l 981 194 q 1022 226 1013 194 l 1214 940 q 1254 972 1221 972 l 1390 972 q 1410 963 1403 972 q 1414 940 1418 954 l 1171 32 q 1156 9 1168 18 q 1131 0 1144 0 l 908 0 q 846 15 881 0 q 792 49 811 29 l 743 97 q 693 49 726 82 q 640 15 674 29 q 578 0 606 0 l 354 0 q 314 32 324 0 l 71 940 z "},"X":{"ha":1083,"x_min":67,"x_max":1017,"o":"m 75 26 l 400 460 q 400 513 419 488 l 75 946 q 70 965 67 957 q 88 972 74 972 l 265 972 q 318 946 299 972 l 522 674 q 542 664 529 664 q 561 674 554 664 l 765 946 q 817 972 785 972 l 994 972 q 1013 965 1008 972 q 1008 946 1017 957 q 682 513 792 657 q 682 460 665 486 l 1008 26 q 1013 8 1017 17 q 994 0 1008 0 l 817 0 q 765 26 785 0 l 561 299 q 542 308 554 308 q 522 299 529 308 l 318 26 q 265 0 299 0 l 88 0 q 70 8 74 0 q 75 26 67 17 z "},"Y":{"ha":1113,"x_min":69,"x_max":1042,"o":"m 69 940 q 78 963 69 954 q 101 972 88 972 l 232 972 q 255 963 246 972 q 264 940 264 954 l 264 421 q 273 398 264 407 q 296 389 282 389 l 815 389 q 838 398 829 389 q 847 421 847 407 l 847 940 q 856 963 847 954 q 879 972 865 972 l 1010 972 q 1033 963 1024 972 q 1042 940 1042 954 l 1042 389 q 985 251 1042 308 q 847 194 928 194 l 685 194 q 662 185 671 194 q 653 163 653 176 l 653 32 q 644 9 653 18 q 621 0 635 0 l 490 0 q 467 9 476 0 q 458 32 458 18 l 458 163 q 449 185 458 176 q 426 194 440 194 l 264 194 q 126 251 183 194 q 69 389 69 308 l 69 940 z "},"Z":{"ha":1113,"x_min":71,"x_max":1043,"o":"m 1043 32 q 1034 9 1043 18 q 1011 0 1025 0 l 103 0 q 80 9 89 0 q 71 32 71 18 l 71 163 q 96 215 71 197 l 721 757 q 725 765 725 758 l 725 769 q 714 778 721 778 l 103 778 q 80 787 89 778 q 71 810 71 796 l 71 940 q 80 963 71 954 q 103 972 89 972 l 1011 972 q 1034 963 1025 972 q 1043 940 1043 954 l 1043 810 q 1018 757 1043 775 l 393 215 q 389 207 389 214 l 389 203 q 400 194 393 194 l 1011 194 q 1034 185 1025 194 q 1043 163 1043 176 l 1043 32 z "},"[":{"ha":447,"x_min":69,"x_max":378,"o":"m 69 -265 l 69 1233 q 79 1258 69 1247 q 104 1268 89 1268 l 343 1268 q 367 1258 357 1268 q 378 1235 378 1249 l 378 1106 q 367 1083 378 1092 q 340 1074 356 1074 l 301 1074 q 275 1063 286 1074 q 264 1039 264 1053 l 264 -72 q 275 -96 264 -86 q 301 -106 286 -106 l 340 -106 q 367 -115 356 -106 q 378 -137 378 -124 l 378 -268 q 367 -291 378 -282 q 343 -300 357 -300 l 104 -300 q 79 -290 89 -300 q 69 -265 69 -281 z "},"\\":{"ha":1008,"x_min":67,"x_max":942,"o":"m 297 1001 l 935 -103 q 935 -125 942 -114 q 917 -136 926 -136 l 771 -136 q 713 -103 732 -136 l 74 1001 q 74 1024 67 1013 q 93 1036 81 1036 l 239 1036 q 297 1001 276 1036 z "},"]":{"ha":447,"x_min":69,"x_max":378,"o":"m 378 1233 l 378 -265 q 368 -290 378 -281 q 343 -300 358 -300 l 104 -300 q 80 -291 90 -300 q 69 -268 69 -282 l 69 -137 q 81 -115 69 -124 q 107 -106 92 -106 l 146 -106 q 172 -96 161 -106 q 183 -72 183 -86 l 183 1039 q 172 1063 183 1053 q 146 1074 161 1074 l 107 1074 q 81 1083 92 1074 q 69 1106 69 1092 l 69 1235 q 80 1258 69 1249 q 104 1268 90 1268 l 343 1268 q 368 1258 358 1268 q 378 1233 378 1247 z "},"^":{"ha":810,"x_min":57,"x_max":753,"o":"m 79 669 l 261 851 l 382 972 q 406 982 392 982 q 428 972 419 982 l 731 669 q 731 625 753 647 l 639 533 q 617 524 631 524 q 593 533 603 524 l 404 721 l 217 533 q 194 524 208 524 q 171 533 181 524 l 79 625 q 79 669 57 647 z "},"_":{"ha":1111,"x_min":69,"x_max":1042,"o":"m 1010 -107 q 1033 -116 1024 -107 q 1042 -139 1042 -125 l 1042 -268 q 1033 -291 1042 -282 q 1010 -300 1024 -300 l 101 -300 q 78 -291 88 -300 q 69 -268 69 -282 l 69 -139 q 78 -116 69 -125 q 101 -107 88 -107 l 1010 -107 z "},"a":{"ha":1111,"x_min":69,"x_max":1042,"o":"m 815 778 l 296 778 q 273 769 282 778 q 264 746 264 760 l 264 421 q 273 398 264 407 q 296 389 282 389 l 815 389 q 838 398 829 389 q 847 421 847 407 l 847 746 q 838 769 847 760 q 815 778 829 778 m 69 32 l 69 778 q 126 915 69 858 q 264 972 183 972 l 847 972 q 985 915 928 972 q 1042 778 1042 858 l 1042 32 q 1033 9 1042 18 q 1010 0 1024 0 l 879 0 q 856 9 865 0 q 847 32 847 18 l 847 163 q 838 185 847 176 q 815 194 829 194 l 296 194 q 273 185 282 194 q 264 163 264 176 l 264 32 q 255 9 264 18 q 232 0 246 0 l 101 0 q 78 9 88 0 q 69 32 69 18 z "},"b":{"ha":1113,"x_min":69,"x_max":1042,"o":"m 296 194 l 815 194 q 838 203 829 194 q 847 226 847 213 l 847 357 q 838 380 847 371 q 815 389 829 389 l 296 389 q 273 380 282 389 q 264 357 264 371 l 264 226 q 273 203 264 213 q 296 194 282 194 m 296 583 l 815 583 q 838 592 829 583 q 847 615 847 601 l 847 746 q 838 769 847 760 q 815 778 829 778 l 296 778 q 273 769 282 778 q 264 746 264 760 l 264 615 q 273 592 264 601 q 296 583 282 583 m 69 194 l 69 778 q 126 915 69 858 q 264 972 183 972 l 847 972 q 985 915 928 972 q 1042 778 1042 858 l 1042 653 q 993 535 1042 583 l 944 486 l 993 438 q 1042 319 1042 389 l 1042 194 q 985 57 1042 114 q 847 0 928 0 l 264 0 q 126 57 183 0 q 69 194 69 114 z "},"c":{"ha":1015,"x_min":69,"x_max":944,"o":"m 69 194 l 69 778 q 126 915 69 858 q 264 972 183 972 l 913 972 q 935 963 926 972 q 944 940 944 954 l 944 810 q 935 787 944 796 q 913 778 926 778 l 296 778 q 273 769 282 778 q 264 746 264 760 l 264 226 q 273 203 264 213 q 296 194 282 194 l 913 194 q 935 185 926 194 q 944 163 944 176 l 944 32 q 935 9 944 18 q 913 0 926 0 l 264 0 q 126 57 183 0 q 69 194 69 114 z "},"d":{"ha":1113,"x_min":69,"x_max":1042,"o":"m 69 940 q 78 963 69 954 q 101 972 88 972 l 847 972 q 985 915 928 972 q 1042 778 1042 858 l 1042 194 q 985 57 1042 114 q 847 0 928 0 l 101 0 q 78 9 88 0 q 69 32 69 18 l 69 940 m 296 778 q 273 769 282 778 q 264 746 264 760 l 264 226 q 273 203 264 213 q 296 194 282 194 l 815 194 q 838 203 829 194 q 847 226 847 213 l 847 746 q 838 769 847 760 q 815 778 829 778 l 296 778 z "},"e":{"ha":1015,"x_min":69,"x_max":944,"o":"m 69 194 l 69 778 q 126 915 69 858 q 264 972 183 972 l 913 972 q 935 963 926 972 q 944 940 944 954 l 944 810 q 935 787 944 796 q 913 778 926 778 l 296 778 q 273 769 282 778 q 264 746 264 760 l 264 615 q 273 592 264 601 q 296 583 282 583 l 913 583 q 935 574 926 583 q 944 551 944 565 l 944 421 q 935 398 944 407 q 913 389 926 389 l 296 389 q 273 380 282 389 q 264 357 264 371 l 264 226 q 273 203 264 213 q 296 194 282 194 l 913 194 q 935 185 926 194 q 944 163 944 176 l 944 32 q 935 9 944 18 q 913 0 926 0 l 264 0 q 126 57 183 0 q 69 194 69 114 z "},"f":{"ha":1014,"x_min":69,"x_max":944,"o":"m 69 778 q 126 915 69 858 q 264 972 183 972 l 913 972 q 935 963 926 972 q 944 940 944 954 l 944 810 q 935 787 944 796 q 913 778 926 778 l 296 778 q 273 769 282 778 q 264 746 264 760 l 264 615 q 273 592 264 601 q 296 583 282 583 l 815 583 q 838 574 829 583 q 847 551 847 565 l 847 421 q 838 398 847 407 q 815 389 829 389 l 296 389 q 273 380 282 389 q 264 357 264 371 l 264 32 q 255 9 264 18 q 232 0 246 0 l 101 0 q 78 9 88 0 q 69 32 69 18 l 69 778 z "},"g":{"ha":1113,"x_min":69,"x_max":1042,"o":"m 69 778 q 126 915 69 858 q 264 972 183 972 l 913 972 q 935 963 926 972 q 944 940 944 954 l 944 810 q 935 787 944 796 q 913 778 926 778 l 296 778 q 273 769 282 778 q 264 746 264 760 l 264 226 q 273 203 264 213 q 296 194 282 194 l 815 194 q 838 203 829 194 q 847 226 847 213 l 847 357 q 838 380 847 371 q 815 389 829 389 l 490 389 q 467 398 476 389 q 458 421 458 407 l 458 551 q 467 574 458 565 q 490 583 476 583 l 847 583 q 985 526 928 583 q 1042 389 1042 469 l 1042 194 q 985 57 1042 114 q 847 0 928 0 l 264 0 q 126 57 183 0 q 69 194 69 114 l 69 778 z "},"h":{"ha":1113,"x_min":69,"x_max":1042,"o":"m 69 33 l 69 942 q 78 965 69 956 q 101 974 88 974 l 232 974 q 255 965 246 974 q 264 942 264 956 l 264 617 q 273 594 264 603 q 296 585 282 585 l 815 585 q 838 594 829 585 q 847 617 847 603 l 847 942 q 856 965 847 956 q 879 974 865 974 l 1010 974 q 1033 965 1024 974 q 1042 942 1042 956 l 1042 33 q 1033 10 1042 19 q 1010 1 1024 1 l 879 1 q 856 10 865 1 q 847 33 847 19 l 847 358 q 838 381 847 372 q 815 390 829 390 l 296 390 q 273 381 282 390 q 264 358 264 372 l 264 33 q 255 10 264 19 q 232 1 246 1 l 101 1 q 78 10 88 1 q 69 33 69 19 z "},"i":{"ha":333,"x_min":69,"x_max":264,"o":"m 264 32 q 255 9 264 18 q 232 0 246 0 l 101 0 q 78 9 88 0 q 69 32 69 18 l 69 940 q 78 963 69 954 q 101 972 88 972 l 232 972 q 255 963 246 972 q 264 940 264 954 l 264 32 z "},"j":{"ha":1113,"x_min":69,"x_max":1042,"o":"m 847 940 q 856 963 847 954 q 879 972 865 972 l 1010 972 q 1033 963 1024 972 q 1042 940 1042 954 l 1042 194 q 985 57 1042 114 q 847 0 928 0 l 264 0 q 126 57 183 0 q 69 194 69 114 l 69 454 q 78 477 69 468 q 101 486 88 486 l 232 486 q 255 477 246 486 q 264 454 264 468 l 264 226 q 273 203 264 213 q 296 194 282 194 l 815 194 q 838 203 829 194 q 847 226 847 213 l 847 940 z "},"k":{"ha":1094,"x_min":69,"x_max":1025,"o":"m 69 32 l 69 940 q 78 963 69 954 q 101 972 88 972 l 232 972 q 255 963 246 972 q 264 940 264 954 l 264 615 q 273 592 264 601 q 296 583 282 583 l 417 583 q 469 608 450 583 l 764 947 q 817 972 783 972 l 1010 972 q 1022 964 1019 972 q 1021 947 1025 957 l 643 511 q 643 461 621 486 l 1021 25 q 1022 8 1025 15 q 1010 0 1019 0 l 817 0 q 764 25 783 0 l 469 364 q 417 389 450 389 l 296 389 q 273 380 282 389 q 264 357 264 371 l 264 32 q 255 9 264 18 q 232 0 246 0 l 101 0 q 78 9 88 0 q 69 32 69 18 z "},"l":{"ha":1015,"x_min":69,"x_max":944,"o":"m 69 194 l 69 940 q 78 963 69 954 q 101 972 88 972 l 232 972 q 255 963 246 972 q 264 940 264 954 l 264 226 q 273 203 264 213 q 296 194 282 194 l 913 194 q 935 185 926 194 q 944 163 944 176 l 944 32 q 935 9 944 18 q 913 0 926 0 l 264 0 q 126 57 183 0 q 69 194 69 114 z "},"m":{"ha":1500,"x_min":69,"x_max":1431,"o":"m 69 940 q 78 963 69 954 q 101 972 88 972 l 232 972 q 285 947 267 972 l 750 410 q 1215 947 904 589 q 1268 972 1235 972 l 1399 972 q 1422 963 1413 972 q 1431 940 1431 954 l 1431 32 q 1421 9 1431 18 q 1399 0 1411 0 l 1268 0 q 1245 9 1254 0 q 1236 32 1236 18 l 1236 643 q 1230 658 1236 656 q 1215 650 1224 660 q 771 136 1090 507 q 750 126 761 126 q 729 136 739 126 q 285 650 410 507 q 270 658 276 660 q 264 642 264 656 l 264 32 q 255 9 264 18 q 232 0 246 0 l 103 0 q 79 9 89 0 q 69 32 69 18 l 69 940 z "},"n":{"ha":1111,"x_min":69,"x_max":1042,"o":"m 69 32 l 69 940 q 79 963 69 953 q 103 972 89 972 l 232 972 q 286 947 264 972 l 826 322 q 840 318 832 317 q 847 329 847 321 l 847 940 q 857 963 847 953 q 879 972 867 972 l 1010 972 q 1033 963 1024 972 q 1042 940 1042 953 l 1042 32 q 1033 10 1042 19 q 1010 0 1024 0 l 879 0 q 826 25 846 0 q 286 650 632 247 q 270 658 276 660 q 264 642 264 656 l 264 32 q 255 10 264 19 q 232 0 246 0 l 103 0 q 79 10 89 0 q 69 32 69 19 z "},"o":{"ha":1111,"x_min":69,"x_max":1042,"o":"m 69 194 l 69 778 q 126 915 69 858 q 264 972 183 972 l 847 972 q 985 915 928 972 q 1042 778 1042 858 l 1042 194 q 985 57 1042 114 q 847 0 928 0 l 264 0 q 126 57 183 0 q 69 194 69 114 m 296 194 l 815 194 q 838 203 829 194 q 847 226 847 213 l 847 746 q 838 769 847 760 q 815 778 829 778 l 296 778 q 273 769 282 778 q 264 746 264 760 l 264 226 q 273 203 264 213 q 296 194 282 194 z "},"p":{"ha":1113,"x_min":69,"x_max":1042,"o":"m 815 778 l 296 778 q 273 769 282 778 q 264 746 264 760 l 264 421 q 273 398 264 407 q 296 389 282 389 l 815 389 q 838 398 829 389 q 847 421 847 407 l 847 746 q 838 769 847 760 q 815 778 829 778 m 69 32 l 69 778 q 126 915 69 858 q 264 972 183 972 l 847 972 q 985 915 928 972 q 1042 778 1042 858 l 1042 389 q 985 251 1042 308 q 847 194 928 194 l 296 194 q 273 185 282 194 q 264 163 264 176 l 264 32 q 255 9 264 18 q 232 0 246 0 l 101 0 q 78 9 88 0 q 69 32 69 18 z "},"q":{"ha":1113,"x_min":69,"x_max":1139,"o":"m 814 778 l 296 778 q 274 768 283 778 q 264 746 264 758 l 264 226 q 274 203 264 213 q 296 194 283 194 l 814 194 q 838 203 828 194 q 847 226 847 213 l 847 746 q 838 768 847 758 q 814 778 828 778 m 69 194 l 69 778 q 126 915 69 858 q 264 972 183 972 l 847 972 q 984 915 928 972 q 1040 778 1040 858 l 1040 129 q 1050 107 1040 117 q 1074 97 1060 97 l 1106 97 q 1129 88 1119 97 q 1139 65 1139 79 l 1139 -65 q 1129 -88 1139 -79 q 1106 -97 1119 -97 l 976 -97 q 953 -88 963 -97 q 944 -65 944 -79 l 944 -33 q 935 -10 944 -19 q 913 0 925 0 l 264 0 q 126 57 183 0 q 69 194 69 114 z "},"r":{"ha":1113,"x_min":69,"x_max":1042,"o":"m 815 778 l 296 778 q 273 769 282 778 q 264 746 264 760 l 264 421 q 273 398 264 407 q 296 389 282 389 l 815 389 q 838 398 829 389 q 847 421 847 407 l 847 746 q 838 769 847 760 q 815 778 829 778 m 1042 778 l 1042 389 q 985 251 1042 308 q 847 194 928 194 l 782 194 q 769 186 774 194 q 772 172 767 178 l 922 24 q 925 8 926 17 q 913 0 921 0 l 701 0 q 647 24 668 0 l 499 172 q 443 194 474 194 l 296 194 q 273 185 282 194 q 264 163 264 176 l 264 32 q 255 9 264 18 q 232 0 246 0 l 101 0 q 78 9 88 0 q 69 32 69 18 l 69 778 q 126 915 69 858 q 264 972 183 972 l 847 972 q 985 915 928 972 q 1042 778 1042 858 z "},"s":{"ha":1110,"x_min":69,"x_max":1040,"o":"m 69 778 q 126 915 69 858 q 264 972 183 972 l 911 972 q 935 963 925 972 q 944 940 944 953 l 944 810 q 935 787 944 796 q 911 778 925 778 l 296 778 q 273 768 282 778 q 264 746 264 758 l 264 617 q 273 593 264 603 q 296 583 282 583 l 847 583 q 984 526 928 583 q 1040 389 1040 469 l 1040 194 q 984 57 1040 114 q 847 0 928 0 q 482 1 740 0 q 101 1 224 1 q 78 10 88 1 q 69 33 69 19 l 69 163 q 78 185 69 176 q 101 194 88 194 l 814 194 q 838 204 828 194 q 847 228 847 214 l 847 357 q 838 379 847 369 q 814 389 828 389 l 264 389 q 126 446 183 389 q 69 583 69 503 l 69 778 z "},"t":{"ha":1113,"x_min":69,"x_max":1042,"o":"m 69 940 q 78 963 69 954 q 101 972 88 972 l 1010 972 q 1033 963 1024 972 q 1042 940 1042 954 l 1042 810 q 1033 787 1042 796 q 1010 778 1024 778 l 685 778 q 662 769 671 778 q 653 746 653 760 l 653 32 q 644 9 653 18 q 621 0 635 0 l 490 0 q 467 9 476 0 q 458 32 458 18 l 458 746 q 449 769 458 760 q 426 778 440 778 l 101 778 q 78 787 88 778 q 69 810 69 796 l 69 940 z "},"u":{"ha":1113,"x_min":69,"x_max":1042,"o":"m 69 194 l 69 940 q 78 963 69 954 q 101 972 88 972 l 232 972 q 255 963 246 972 q 264 940 264 954 l 264 226 q 273 203 264 213 q 296 194 282 194 l 815 194 q 838 203 829 194 q 847 226 847 213 l 847 940 q 856 963 847 954 q 879 972 865 972 l 1010 972 q 1033 963 1024 972 q 1042 940 1042 954 l 1042 194 q 985 57 1042 114 q 847 0 928 0 l 264 0 q 126 57 183 0 q 69 194 69 114 z "},"v":{"ha":1111,"x_min":67,"x_max":1044,"o":"m 71 940 q 75 963 67 954 q 94 972 82 972 l 233 972 q 275 940 265 972 l 469 226 q 511 194 479 194 l 600 194 q 642 226 632 194 l 836 940 q 878 972 846 972 l 1017 972 q 1036 963 1029 972 q 1040 940 1044 954 l 793 32 q 751 0 786 0 l 360 0 q 318 32 325 0 l 71 940 z "},"w":{"ha":1486,"x_min":67,"x_max":1418,"o":"m 71 940 q 75 963 67 953 q 94 972 82 972 l 231 972 q 272 940 263 972 l 463 226 q 504 194 472 194 l 592 194 q 633 226 624 194 l 633 228 q 633 290 642 260 l 460 940 q 464 963 456 954 q 483 972 471 972 l 619 972 q 661 940 651 972 l 743 635 l 825 940 q 865 972 832 972 l 1001 972 q 1021 963 1014 972 q 1025 940 1029 954 l 851 290 q 851 228 843 260 l 851 226 q 893 194 861 194 l 981 194 q 1022 226 1013 194 l 1214 940 q 1254 972 1221 972 l 1390 972 q 1410 963 1403 972 q 1414 940 1418 954 l 1171 32 q 1156 9 1168 18 q 1131 0 1144 0 l 908 0 q 846 15 881 0 q 792 49 811 29 l 743 97 q 693 49 726 82 q 640 15 674 29 q 578 0 606 0 l 354 0 q 314 32 324 0 l 71 940 z "},"x":{"ha":1083,"x_min":67,"x_max":1017,"o":"m 75 26 l 400 460 q 400 513 419 488 l 75 946 q 70 965 67 957 q 88 972 74 972 l 265 972 q 318 946 299 972 l 522 674 q 542 664 529 664 q 561 674 554 664 l 765 946 q 817 972 785 972 l 994 972 q 1013 965 1008 972 q 1008 946 1017 957 q 682 513 792 657 q 682 460 665 486 l 1008 26 q 1013 8 1017 17 q 994 0 1008 0 l 817 0 q 765 26 785 0 l 561 299 q 542 308 554 308 q 522 299 529 308 l 318 26 q 265 0 299 0 l 88 0 q 70 8 74 0 q 75 26 67 17 z "},"y":{"ha":1113,"x_min":69,"x_max":1042,"o":"m 69 940 q 78 963 69 954 q 101 972 88 972 l 232 972 q 255 963 246 972 q 264 940 264 954 l 264 421 q 273 398 264 407 q 296 389 282 389 l 815 389 q 838 398 829 389 q 847 421 847 407 l 847 940 q 856 963 847 954 q 879 972 865 972 l 1010 972 q 1033 963 1024 972 q 1042 940 1042 954 l 1042 389 q 985 251 1042 308 q 847 194 928 194 l 685 194 q 662 185 671 194 q 653 163 653 176 l 653 32 q 644 9 653 18 q 621 0 635 0 l 490 0 q 467 9 476 0 q 458 32 458 18 l 458 163 q 449 185 458 176 q 426 194 440 194 l 264 194 q 126 251 183 194 q 69 389 69 308 l 69 940 z "},"z":{"ha":1113,"x_min":71,"x_max":1043,"o":"m 1043 32 q 1034 9 1043 18 q 1011 0 1025 0 l 103 0 q 80 9 89 0 q 71 32 71 18 l 71 163 q 96 215 71 197 l 721 757 q 725 765 725 758 l 725 769 q 714 778 721 778 l 103 778 q 80 787 89 778 q 71 810 71 796 l 71 940 q 80 963 71 954 q 103 972 89 972 l 1011 972 q 1034 963 1025 972 q 1043 940 1043 954 l 1043 810 q 1018 757 1043 775 l 393 215 q 389 207 389 214 l 389 203 q 400 194 393 194 l 1011 194 q 1034 185 1025 194 q 1043 163 1043 176 l 1043 32 z "},"{":{"ha":515,"x_min":69,"x_max":446,"o":"m 153 -106 l 153 361 q 131 415 153 394 l 79 467 q 69 490 69 475 q 79 513 69 504 l 131 564 q 153 619 153 585 l 153 1072 q 210 1210 153 1153 q 347 1267 267 1267 l 413 1267 q 436 1258 426 1267 q 446 1235 446 1249 l 446 1106 q 436 1082 446 1092 q 413 1072 426 1072 l 381 1072 q 357 1063 367 1072 q 347 1040 347 1054 l 347 654 q 300 538 347 588 l 250 490 l 300 442 q 347 325 347 394 l 347 -72 q 357 -96 347 -86 q 381 -106 367 -106 l 413 -106 q 436 -115 426 -106 q 446 -137 446 -124 l 446 -267 q 436 -290 446 -281 q 413 -300 426 -300 l 347 -300 q 210 -243 267 -300 q 153 -106 153 -186 z "},"|":{"ha":333,"x_min":69,"x_max":264,"o":"m 264 -257 q 250 -289 264 -275 q 218 -303 236 -303 l 115 -303 q 83 -289 97 -303 q 69 -257 69 -275 l 69 1221 q 83 1253 69 1239 q 115 1267 97 1267 l 218 1267 q 250 1253 236 1267 q 264 1221 264 1239 l 264 -257 z "},"}":{"ha":515,"x_min":69,"x_max":446,"o":"m 361 361 l 361 -106 q 304 -243 361 -186 q 167 -300 247 -300 l 101 -300 q 79 -290 89 -300 q 69 -267 69 -281 l 69 -137 q 79 -115 69 -124 q 101 -106 89 -106 l 135 -106 q 158 -96 149 -106 q 167 -72 167 -86 l 167 325 q 215 442 167 393 l 265 490 l 215 538 q 167 654 167 589 l 167 1040 q 158 1063 167 1054 q 135 1072 149 1072 l 101 1072 q 79 1082 89 1072 q 69 1106 69 1092 l 69 1235 q 79 1258 69 1249 q 101 1267 89 1267 l 167 1267 q 304 1210 247 1267 q 361 1072 361 1153 l 361 619 q 385 564 361 585 l 436 513 q 446 490 446 504 q 436 467 446 475 l 385 415 q 361 361 361 394 z "},"~":{"ha":1076,"x_min":60,"x_max":1018,"o":"m 263 293 l 78 478 q 78 524 60 506 l 167 615 q 190 625 178 625 q 214 615 204 625 l 374 454 q 399 444 383 444 q 421 454 413 444 q 483 517 443 475 q 536 571 524 558 q 671 628 590 628 q 811 568 751 628 l 999 386 q 999 339 1018 358 l 906 246 q 883 236 896 236 q 858 246 871 236 l 693 411 q 671 419 685 419 q 649 411 658 419 q 536 293 617 382 q 399 238 478 238 q 263 293 321 238 z "},"©":{"ha":1306,"x_min":69,"x_max":1236,"o":"m 296 108 l 1010 108 q 1033 117 1024 108 q 1042 140 1042 126 l 1042 854 q 1033 877 1042 868 q 1010 886 1024 886 l 296 886 q 273 877 282 886 q 264 854 264 868 l 264 140 q 273 117 264 126 q 296 108 282 108 m 69 108 l 69 886 q 126 1024 69 967 q 264 1081 183 1081 l 1042 1081 q 1179 1024 1122 1081 q 1236 886 1236 967 l 1236 108 q 1179 -29 1236 28 q 1042 -86 1122 -86 l 264 -86 q 126 -29 183 -86 q 69 108 69 28 m 361 400 l 361 594 q 418 732 361 675 q 556 789 475 789 l 750 789 q 888 732 831 789 q 944 594 944 675 l 944 578 q 935 555 944 564 q 911 546 925 546 l 782 546 q 760 555 769 546 q 750 578 750 564 q 718 594 740 601 l 588 594 q 565 585 574 594 q 556 563 556 576 l 556 432 q 565 409 556 418 q 588 400 574 400 l 718 400 q 741 409 732 400 q 750 432 750 418 q 763 447 753 442 q 782 449 772 451 l 911 449 q 935 440 925 449 q 944 417 944 431 l 944 400 q 888 263 944 319 q 750 206 831 206 l 556 206 q 418 263 475 206 q 361 400 361 319 z "},"«":{"ha":972,"x_min":69,"x_max":914,"o":"m 382 153 l 79 457 q 70 480 71 467 q 79 503 69 493 l 382 806 q 406 815 392 815 q 428 806 419 815 l 519 713 q 519 668 542 690 l 331 479 l 519 290 q 528 269 528 282 q 519 246 529 256 l 428 154 q 404 144 418 144 q 382 153 390 144 m 754 154 l 451 457 q 442 480 442 467 q 451 501 443 493 l 756 806 q 778 814 764 814 q 799 806 790 814 l 890 713 q 890 668 913 690 l 704 479 l 892 292 q 892 246 914 269 l 800 154 q 778 144 790 144 q 754 154 767 144 z "},"®":{"ha":699,"x_min":69,"x_max":628,"o":"m 547 1199 l 150 1199 q 139 1188 139 1199 l 139 792 q 150 779 139 779 l 547 779 q 558 792 558 779 l 558 1188 q 547 1199 558 1199 m 442 1093 l 256 1093 q 244 1082 244 1093 l 244 965 q 256 954 244 954 l 442 954 q 453 965 453 954 l 453 1082 q 442 1093 453 1093 m 139 1268 l 558 1268 q 608 1248 588 1268 q 628 1199 628 1228 l 628 779 q 608 731 628 751 q 558 710 588 710 l 139 710 q 90 731 110 710 q 69 779 69 751 l 69 1199 q 90 1248 69 1228 q 139 1268 110 1268 m 524 1093 l 524 954 q 503 905 524 925 q 453 885 482 885 l 431 885 q 426 883 426 885 q 425 879 425 882 q 428 876 425 876 l 481 824 q 482 821 482 822 q 476 814 481 814 l 401 814 q 382 824 392 814 l 329 876 q 308 885 321 885 l 256 885 q 244 872 244 885 l 244 826 q 232 814 244 814 l 186 814 q 174 826 174 814 l 174 1093 q 194 1143 174 1122 q 244 1164 215 1164 l 453 1164 q 503 1143 482 1164 q 524 1093 524 1122 z "},"»":{"ha":972,"x_min":58,"x_max":903,"o":"m 893 457 l 590 153 q 568 144 582 144 q 544 154 554 144 l 453 246 q 444 269 443 256 q 453 290 444 282 l 642 479 l 453 668 q 453 713 431 690 l 544 806 q 567 815 553 815 q 590 806 582 815 l 893 503 q 902 480 903 493 q 893 457 901 467 m 521 457 l 218 154 q 194 144 208 144 q 172 154 182 144 l 81 246 q 81 292 58 269 l 268 479 l 82 668 q 82 713 60 690 l 174 806 q 194 814 182 814 q 217 806 208 814 l 521 501 q 530 480 529 493 q 521 457 531 467 z "},"˜":{"ha":1076,"x_min":60,"x_max":1018,"o":"m 263 639 l 78 824 q 78 869 60 851 l 167 961 q 190 971 178 971 q 214 961 204 971 l 374 800 q 399 790 383 790 q 421 800 413 790 q 483 863 443 821 q 536 917 524 904 q 671 974 590 974 q 811 914 751 974 l 999 732 q 999 685 1018 704 l 906 592 q 883 582 896 582 q 858 592 871 582 l 693 757 q 671 765 685 765 q 649 757 658 765 q 536 639 617 728 q 399 583 478 583 q 263 639 321 583 z "},"Ё":{"ha":1013,"x_min":69,"x_max":942,"o":"m 264 1226 q 273 1250 264 1240 q 294 1260 282 1260 l 425 1260 q 449 1250 439 1260 q 458 1226 458 1240 l 458 1099 q 449 1075 458 1085 q 425 1065 439 1065 l 294 1065 q 273 1075 282 1065 q 264 1099 264 1085 l 264 1226 m 651 1226 q 660 1250 651 1240 q 683 1260 669 1260 l 815 1260 q 837 1250 828 1260 q 846 1226 846 1240 l 846 1099 q 837 1075 846 1085 q 815 1065 828 1065 l 683 1065 q 660 1075 669 1065 q 651 1099 651 1085 l 651 1226 m 69 774 q 126 911 69 854 q 264 968 183 968 l 911 968 q 933 959 924 968 q 942 936 942 950 l 942 807 q 933 783 942 793 q 911 774 924 774 l 294 774 q 273 765 282 774 q 264 743 264 756 l 264 613 q 273 590 264 599 q 294 581 282 581 l 911 581 q 933 572 924 581 q 942 549 942 563 l 942 418 q 933 397 942 406 q 911 388 924 388 l 294 388 q 273 378 282 388 q 264 354 264 368 l 264 225 q 273 202 264 211 q 294 193 282 193 l 911 193 q 933 183 924 193 q 942 160 942 174 l 942 32 q 933 8 942 18 q 911 -1 924 -1 l 264 -1 q 126 56 183 -1 q 69 193 69 113 l 69 774 z "},"А":{"ha":1111,"x_min":69,"x_max":1042,"o":"m 815 778 l 296 778 q 273 769 282 778 q 264 746 264 760 l 264 421 q 273 398 264 407 q 296 389 282 389 l 815 389 q 838 398 829 389 q 847 421 847 407 l 847 746 q 838 769 847 760 q 815 778 829 778 m 69 32 l 69 778 q 126 915 69 858 q 264 972 183 972 l 847 972 q 985 915 928 972 q 1042 778 1042 858 l 1042 32 q 1033 9 1042 18 q 1010 0 1024 0 l 879 0 q 856 9 865 0 q 847 32 847 18 l 847 163 q 838 185 847 176 q 815 194 829 194 l 296 194 q 273 185 282 194 q 264 163 264 176 l 264 32 q 255 9 264 18 q 232 0 246 0 l 101 0 q 78 9 88 0 q 69 32 69 18 z "},"Б":{"ha":1111,"x_min":69,"x_max":1042,"o":"m 815 389 l 296 389 q 273 380 282 389 q 264 357 264 371 l 264 226 q 273 203 264 213 q 296 194 282 194 l 815 194 q 838 203 829 194 q 847 226 847 213 l 847 357 q 838 380 847 371 q 815 389 829 389 m 69 194 l 69 778 q 126 915 69 858 q 264 972 183 972 l 913 972 q 935 963 926 972 q 944 940 944 954 l 944 810 q 935 787 944 796 q 913 778 926 778 l 296 778 q 273 769 282 778 q 264 746 264 760 l 264 615 q 273 592 264 601 q 296 583 282 583 l 847 583 q 985 526 928 583 q 1042 389 1042 469 l 1042 194 q 985 57 1042 114 q 847 0 928 0 l 264 0 q 126 57 183 0 q 69 194 69 114 z "},"В":{"ha":1113,"x_min":69,"x_max":1042,"o":"m 296 194 l 815 194 q 838 203 829 194 q 847 226 847 213 l 847 357 q 838 380 847 371 q 815 389 829 389 l 296 389 q 273 380 282 389 q 264 357 264 371 l 264 226 q 273 203 264 213 q 296 194 282 194 m 296 583 l 815 583 q 838 592 829 583 q 847 615 847 601 l 847 746 q 838 769 847 760 q 815 778 829 778 l 296 778 q 273 769 282 778 q 264 746 264 760 l 264 615 q 273 592 264 601 q 296 583 282 583 m 69 194 l 69 778 q 126 915 69 858 q 264 972 183 972 l 847 972 q 985 915 928 972 q 1042 778 1042 858 l 1042 653 q 993 535 1042 583 l 944 486 l 993 438 q 1042 319 1042 389 l 1042 194 q 985 57 1042 114 q 847 0 928 0 l 264 0 q 126 57 183 0 q 69 194 69 114 z "},"Г":{"ha":1014,"x_min":69,"x_max":944,"o":"m 69 778 q 126 915 69 858 q 264 972 183 972 l 913 972 q 935 963 926 972 q 944 940 944 954 l 944 810 q 935 787 944 796 q 913 778 926 778 l 296 778 q 273 769 282 778 q 264 746 264 760 l 264 32 q 255 9 264 18 q 232 0 246 0 l 101 0 q 78 9 88 0 q 69 32 69 18 l 69 778 z "},"Д":{"ha":1167,"x_min":0,"x_max":1167,"o":"m 843 778 l 324 778 q 301 769 310 778 q 292 746 292 760 l 292 226 q 301 203 292 213 q 324 194 310 194 l 843 194 q 866 203 857 194 q 875 226 875 213 l 875 746 q 866 769 875 760 q 843 778 857 778 m 97 226 l 97 778 q 154 915 97 858 q 292 972 211 972 l 875 972 q 1013 915 956 972 q 1069 778 1069 858 l 1069 226 q 1078 203 1069 213 q 1101 194 1088 194 l 1135 194 q 1158 185 1149 194 q 1167 163 1167 176 l 1167 32 q 1158 9 1167 18 q 1135 0 1149 0 l 32 0 q 9 9 18 0 q 0 32 0 18 l 0 163 q 9 185 0 176 q 32 194 18 194 l 65 194 q 88 203 79 194 q 97 226 97 213 z "},"Е":{"ha":1015,"x_min":69,"x_max":944,"o":"m 69 194 l 69 778 q 126 915 69 858 q 264 972 183 972 l 913 972 q 935 963 926 972 q 944 940 944 954 l 944 810 q 935 787 944 796 q 913 778 926 778 l 296 778 q 273 769 282 778 q 264 746 264 760 l 264 615 q 273 592 264 601 q 296 583 282 583 l 913 583 q 935 574 926 583 q 944 551 944 565 l 944 421 q 935 398 944 407 q 913 389 926 389 l 296 389 q 273 380 282 389 q 264 357 264 371 l 264 226 q 273 203 264 213 q 296 194 282 194 l 913 194 q 935 185 926 194 q 944 163 944 176 l 944 32 q 935 9 944 18 q 913 0 926 0 l 264 0 q 126 57 183 0 q 69 194 69 114 z "},"Ж":{"ha":1501,"x_min":69,"x_max":1431,"o":"m 69 32 l 69 321 q 138 457 69 389 l 167 486 l 118 535 q 84 589 99 554 q 69 651 69 624 l 69 940 q 78 963 69 954 q 101 972 88 972 l 232 972 q 255 963 246 972 q 264 940 264 954 l 264 615 q 273 592 264 601 q 296 583 282 583 l 621 583 q 644 592 635 583 q 653 615 653 601 l 653 940 q 662 963 653 954 q 685 972 671 972 l 815 972 q 838 963 829 972 q 847 940 847 954 l 847 615 q 856 592 847 601 q 879 583 865 583 l 1204 583 q 1227 592 1218 583 q 1236 615 1236 601 l 1236 940 q 1245 963 1236 954 q 1268 972 1254 972 l 1399 972 q 1422 963 1413 972 q 1431 940 1431 954 l 1431 651 q 1382 535 1431 583 l 1333 486 l 1382 438 q 1431 321 1431 389 l 1431 32 q 1422 9 1431 18 q 1399 0 1413 0 l 1268 0 q 1245 9 1254 0 q 1236 32 1236 18 l 1236 357 q 1227 380 1236 371 q 1204 389 1218 389 l 879 389 q 856 380 865 389 q 847 357 847 371 l 847 32 q 838 9 847 18 q 815 0 829 0 l 685 0 q 662 9 671 0 q 653 32 653 18 l 653 357 q 644 380 653 371 q 621 389 635 389 l 296 389 q 273 380 282 389 q 264 357 264 371 l 264 32 q 255 9 264 18 q 232 0 246 0 l 101 0 q 78 9 88 0 q 69 32 69 18 z "},"З":{"ha":1015,"x_min":69,"x_max":944,"o":"m 69 32 l 69 163 q 78 185 69 176 q 101 194 88 194 l 718 194 q 741 203 732 194 q 750 226 750 213 l 750 357 q 741 380 750 371 q 718 389 732 389 l 101 389 q 78 398 88 389 q 69 421 69 407 l 69 551 q 78 574 69 565 q 101 583 88 583 l 718 583 q 741 592 732 583 q 750 615 750 601 l 750 746 q 741 769 750 760 q 718 778 732 778 l 101 778 q 78 787 88 778 q 69 810 69 796 l 69 940 q 78 963 69 954 q 101 972 88 972 l 750 972 q 888 915 831 972 q 944 778 944 858 l 944 651 q 896 535 944 583 l 847 486 l 896 438 q 944 321 944 389 l 944 194 q 888 57 944 114 q 750 0 831 0 l 101 0 q 78 9 88 0 q 69 32 69 18 z "},"И":{"ha":1111,"x_min":69,"x_max":1042,"o":"m 1042 32 q 1032 10 1042 19 q 1008 0 1022 0 l 879 0 q 856 10 865 0 q 847 32 847 19 l 847 642 q 841 658 847 656 q 825 650 835 660 q 285 25 479 247 q 232 0 265 0 l 101 0 q 78 10 88 0 q 69 32 69 19 l 69 940 q 78 963 69 953 q 101 972 88 972 l 232 972 q 254 963 244 972 q 264 940 264 953 l 264 329 q 271 318 264 321 q 285 322 279 317 l 825 947 q 879 972 847 972 l 1008 972 q 1032 963 1022 972 q 1042 940 1042 953 q 1042 486 1040 940 l 1042 32 z "},"Й":{"ha":1114,"x_min":69,"x_max":1043,"o":"m 376 1228 q 385 1251 376 1242 q 408 1260 394 1260 l 879 1260 q 892 1251 888 1260 q 890 1235 896 1243 l 397 647 q 383 644 390 640 q 376 656 376 647 l 376 1228 m 69 942 q 79 965 69 956 q 101 974 89 974 l 232 974 q 255 965 246 974 q 264 942 264 956 l 264 331 q 272 319 264 322 q 286 322 279 317 l 826 950 q 881 974 847 974 l 1011 974 q 1034 965 1025 974 q 1043 942 1043 956 l 1043 33 q 1034 10 1043 19 q 1011 0 1025 0 l 881 0 q 858 10 867 0 q 849 33 849 19 l 849 644 q 840 656 849 653 l 836 656 q 828 651 831 656 l 286 25 q 232 0 264 0 l 101 0 q 79 10 89 0 q 69 33 69 21 l 69 942 z "},"К":{"ha":1094,"x_min":69,"x_max":1025,"o":"m 69 32 l 69 940 q 78 963 69 954 q 101 972 88 972 l 232 972 q 255 963 246 972 q 264 940 264 954 l 264 615 q 273 592 264 601 q 296 583 282 583 l 417 583 q 469 608 450 583 l 764 947 q 817 972 783 972 l 1010 972 q 1022 964 1019 972 q 1021 947 1025 957 l 643 511 q 643 461 621 486 l 1021 25 q 1022 8 1025 15 q 1010 0 1019 0 l 817 0 q 764 25 783 0 l 469 364 q 417 389 450 389 l 296 389 q 273 380 282 389 q 264 357 264 371 l 264 32 q 255 9 264 18 q 232 0 246 0 l 101 0 q 78 9 88 0 q 69 32 69 18 z "},"Л":{"ha":1104,"x_min":67,"x_max":1035,"o":"m 271 778 q 365 918 294 864 q 524 972 435 972 l 1001 972 q 1025 963 1015 972 q 1035 940 1035 954 l 1035 32 q 1025 9 1035 18 q 1001 0 1015 0 l 872 0 q 849 9 858 0 q 840 32 840 18 l 840 746 q 831 769 840 760 q 807 778 821 778 l 504 778 q 464 746 471 778 l 272 32 q 231 0 263 0 l 94 0 q 75 10 82 0 q 71 32 67 18 l 271 778 z "},"М":{"ha":1500,"x_min":69,"x_max":1431,"o":"m 69 940 q 78 963 69 954 q 101 972 88 972 l 232 972 q 285 947 267 972 l 750 410 q 1215 947 904 589 q 1268 972 1235 972 l 1399 972 q 1422 963 1413 972 q 1431 940 1431 954 l 1431 32 q 1421 9 1431 18 q 1399 0 1411 0 l 1268 0 q 1245 9 1254 0 q 1236 32 1236 18 l 1236 643 q 1230 658 1236 656 q 1215 650 1224 660 q 771 136 1090 507 q 750 126 761 126 q 729 136 739 126 q 285 650 410 507 q 270 658 276 660 q 264 642 264 656 l 264 32 q 255 9 264 18 q 232 0 246 0 l 103 0 q 79 9 89 0 q 69 32 69 18 l 69 940 z "},"Н":{"ha":1113,"x_min":69,"x_max":1042,"o":"m 69 33 l 69 942 q 78 965 69 956 q 101 974 88 974 l 232 974 q 255 965 246 974 q 264 942 264 956 l 264 617 q 273 594 264 603 q 296 585 282 585 l 815 585 q 838 594 829 585 q 847 617 847 603 l 847 942 q 856 965 847 956 q 879 974 865 974 l 1010 974 q 1033 965 1024 974 q 1042 942 1042 956 l 1042 33 q 1033 10 1042 19 q 1010 1 1024 1 l 879 1 q 856 10 865 1 q 847 33 847 19 l 847 358 q 838 381 847 372 q 815 390 829 390 l 296 390 q 273 381 282 390 q 264 358 264 372 l 264 33 q 255 10 264 19 q 232 1 246 1 l 101 1 q 78 10 88 1 q 69 33 69 19 z "},"О":{"ha":1111,"x_min":69,"x_max":1042,"o":"m 69 194 l 69 778 q 126 915 69 858 q 264 972 183 972 l 847 972 q 985 915 928 972 q 1042 778 1042 858 l 1042 194 q 985 57 1042 114 q 847 0 928 0 l 264 0 q 126 57 183 0 q 69 194 69 114 m 296 194 l 815 194 q 838 203 829 194 q 847 226 847 213 l 847 746 q 838 769 847 760 q 815 778 829 778 l 296 778 q 273 769 282 778 q 264 746 264 760 l 264 226 q 273 203 264 213 q 296 194 282 194 z "},"П":{"ha":1111,"x_min":69,"x_max":1042,"o":"m 69 778 q 126 915 69 858 q 264 972 183 972 l 847 972 q 985 915 928 972 q 1042 778 1042 858 l 1042 32 q 1033 9 1042 18 q 1010 0 1024 0 l 879 0 q 856 9 865 0 q 847 32 847 18 l 847 746 q 838 769 847 760 q 815 778 829 778 l 296 778 q 273 769 282 778 q 264 746 264 760 l 264 32 q 255 9 264 18 q 232 0 246 0 l 101 0 q 78 9 88 0 q 69 32 69 18 l 69 778 z "},"Р":{"ha":1113,"x_min":69,"x_max":1042,"o":"m 815 778 l 296 778 q 273 769 282 778 q 264 746 264 760 l 264 421 q 273 398 264 407 q 296 389 282 389 l 815 389 q 838 398 829 389 q 847 421 847 407 l 847 746 q 838 769 847 760 q 815 778 829 778 m 69 32 l 69 778 q 126 915 69 858 q 264 972 183 972 l 847 972 q 985 915 928 972 q 1042 778 1042 858 l 1042 389 q 985 251 1042 308 q 847 194 928 194 l 296 194 q 273 185 282 194 q 264 163 264 176 l 264 32 q 255 9 264 18 q 232 0 246 0 l 101 0 q 78 9 88 0 q 69 32 69 18 z "},"С":{"ha":1015,"x_min":69,"x_max":944,"o":"m 69 194 l 69 778 q 126 915 69 858 q 264 972 183 972 l 913 972 q 935 963 926 972 q 944 940 944 954 l 944 810 q 935 787 944 796 q 913 778 926 778 l 296 778 q 273 769 282 778 q 264 746 264 760 l 264 226 q 273 203 264 213 q 296 194 282 194 l 913 194 q 935 185 926 194 q 944 163 944 176 l 944 32 q 935 9 944 18 q 913 0 926 0 l 264 0 q 126 57 183 0 q 69 194 69 114 z "},"Т":{"ha":1113,"x_min":69,"x_max":1042,"o":"m 69 940 q 78 963 69 954 q 101 972 88 972 l 1010 972 q 1033 963 1024 972 q 1042 940 1042 954 l 1042 810 q 1033 787 1042 796 q 1010 778 1024 778 l 685 778 q 662 769 671 778 q 653 746 653 760 l 653 32 q 644 9 653 18 q 621 0 635 0 l 490 0 q 467 9 476 0 q 458 32 458 18 l 458 746 q 449 769 458 760 q 426 778 440 778 l 101 778 q 78 787 88 778 q 69 810 69 796 l 69 940 z "},"У":{"ha":1111,"x_min":69,"x_max":1042,"o":"m 69 940 q 78 963 69 954 q 101 972 88 972 l 232 972 q 255 963 246 972 q 264 940 264 954 l 264 615 q 273 592 264 601 q 296 583 282 583 l 815 583 q 838 592 829 583 q 847 615 847 601 l 847 940 q 856 963 847 954 q 879 972 865 972 l 1010 972 q 1033 963 1024 972 q 1042 940 1042 954 l 1042 194 q 985 57 1042 114 q 847 0 928 0 l 199 0 q 176 9 185 0 q 167 32 167 18 l 167 163 q 176 185 167 176 q 199 194 185 194 l 815 194 q 838 203 829 194 q 847 226 847 213 l 847 357 q 838 380 847 371 q 815 389 829 389 l 264 389 q 126 446 183 389 q 69 583 69 503 l 69 940 z "},"Ф":{"ha":1501,"x_min":69,"x_max":1431,"o":"m 621 778 l 296 778 q 273 769 282 778 q 264 746 264 760 l 264 421 q 273 398 264 407 q 296 389 282 389 l 621 389 q 644 398 635 389 q 653 421 653 407 l 653 746 q 644 769 653 760 q 621 778 635 778 m 1204 778 l 879 778 q 856 769 865 778 q 847 746 847 760 l 847 421 q 856 398 847 407 q 879 389 865 389 l 1204 389 q 1227 398 1218 389 q 1236 421 1236 407 l 1236 746 q 1227 769 1236 760 q 1204 778 1218 778 m 69 389 l 69 778 q 126 915 69 858 q 264 972 183 972 l 1236 972 q 1374 915 1317 972 q 1431 778 1431 858 l 1431 389 q 1374 251 1431 308 q 1236 194 1317 194 l 879 194 q 856 185 865 194 q 847 163 847 176 l 847 32 q 838 9 847 18 q 815 0 829 0 l 685 0 q 662 9 671 0 q 653 32 653 18 l 653 163 q 644 185 653 176 q 621 194 635 194 l 264 194 q 126 251 183 194 q 69 389 69 308 z "},"Х":{"ha":1083,"x_min":67,"x_max":1017,"o":"m 75 26 l 400 460 q 400 513 419 488 l 75 946 q 70 965 67 957 q 88 972 74 972 l 265 972 q 318 946 299 972 l 522 674 q 542 664 529 664 q 561 674 554 664 l 765 946 q 817 972 785 972 l 994 972 q 1013 965 1008 972 q 1008 946 1017 957 q 682 513 792 657 q 682 460 665 486 l 1008 26 q 1013 8 1017 17 q 994 0 1008 0 l 817 0 q 765 26 785 0 l 561 299 q 542 308 554 308 q 522 299 529 308 l 318 26 q 265 0 299 0 l 88 0 q 70 8 74 0 q 75 26 67 17 z "},"Ц":{"ha":1210,"x_min":69,"x_max":1139,"o":"m 69 940 q 78 963 69 954 q 101 972 88 972 l 232 972 q 255 963 246 972 q 264 940 264 954 l 264 226 q 273 203 264 213 q 296 194 282 194 l 815 194 q 838 203 829 194 q 847 226 847 213 l 847 940 q 856 963 847 954 q 879 972 865 972 l 1010 972 q 1033 963 1024 972 q 1042 940 1042 954 l 1042 226 q 1051 203 1042 213 q 1074 194 1060 194 l 1107 194 q 1130 185 1121 194 q 1139 163 1139 176 l 1139 32 q 1130 9 1139 18 q 1107 0 1121 0 l 264 0 q 126 57 183 0 q 69 194 69 114 l 69 940 z "},"Ч":{"ha":1113,"x_min":69,"x_max":1042,"o":"m 69 940 q 78 963 69 954 q 101 972 88 972 l 232 972 q 255 963 246 972 q 264 940 264 954 l 264 421 q 273 398 264 407 q 296 389 282 389 l 815 389 q 838 398 829 389 q 847 421 847 407 l 847 940 q 856 963 847 954 q 879 972 865 972 l 1010 972 q 1033 963 1024 972 q 1042 940 1042 954 l 1042 32 q 1033 9 1042 18 q 1010 0 1024 0 l 879 0 q 856 9 865 0 q 847 32 847 18 l 847 163 q 838 185 847 176 q 815 194 829 194 l 264 194 q 126 251 183 194 q 69 389 69 308 l 69 940 z "},"Ш":{"ha":1501,"x_min":69,"x_max":1431,"o":"m 69 940 q 78 963 69 954 q 101 972 88 972 l 232 972 q 255 963 246 972 q 264 940 264 954 l 264 226 q 273 203 264 213 q 296 194 282 194 l 621 194 q 644 203 635 194 q 653 226 653 213 l 653 940 q 662 963 653 954 q 685 972 671 972 l 815 972 q 838 963 829 972 q 847 940 847 954 l 847 226 q 856 203 847 213 q 879 194 865 194 l 1204 194 q 1227 203 1218 194 q 1236 226 1236 213 l 1236 940 q 1245 963 1236 954 q 1268 972 1254 972 l 1399 972 q 1422 963 1413 972 q 1431 940 1431 954 l 1431 194 q 1374 57 1431 114 q 1236 0 1317 0 l 264 0 q 126 57 183 0 q 69 194 69 114 l 69 940 z "},"Щ":{"ha":1599,"x_min":69,"x_max":1528,"o":"m 69 940 q 78 963 69 954 q 101 972 88 972 l 232 972 q 255 963 246 972 q 264 940 264 954 l 264 226 q 273 203 264 213 q 296 194 282 194 l 621 194 q 644 203 635 194 q 653 226 653 213 l 653 940 q 662 963 653 954 q 685 972 671 972 l 815 972 q 838 963 829 972 q 847 940 847 954 l 847 226 q 856 203 847 213 q 879 194 865 194 l 1204 194 q 1227 203 1218 194 q 1236 226 1236 213 l 1236 940 q 1245 963 1236 954 q 1268 972 1254 972 l 1399 972 q 1422 963 1413 972 q 1431 940 1431 954 l 1431 226 q 1440 203 1431 213 q 1463 194 1449 194 l 1496 194 q 1519 185 1510 194 q 1528 163 1528 176 l 1528 32 q 1519 9 1528 18 q 1496 0 1510 0 l 264 0 q 126 57 183 0 q 69 194 69 114 l 69 940 z "},"Ъ":{"ha":1210,"x_min":69,"x_max":1139,"o":"m 913 583 l 393 583 q 370 574 379 583 q 361 551 361 565 l 361 226 q 370 203 361 213 q 393 194 379 194 l 913 194 q 935 203 926 194 q 944 226 944 213 l 944 551 q 935 574 944 565 q 913 583 926 583 m 69 810 l 69 940 q 78 963 69 954 q 101 972 88 972 l 329 972 q 352 963 343 972 q 361 940 361 954 l 361 810 q 370 787 361 796 q 393 778 379 778 l 944 778 q 1082 721 1025 778 q 1139 583 1139 664 l 1139 194 q 1082 57 1139 114 q 944 0 1025 0 l 361 0 q 224 57 281 0 q 167 194 167 114 l 167 746 q 158 769 167 760 q 135 778 149 778 l 101 778 q 78 787 88 778 q 69 810 69 796 z "},"Ы":{"ha":1404,"x_min":69,"x_max":1333,"o":"m 815 583 l 296 583 q 273 574 282 583 q 264 551 264 565 l 264 226 q 273 203 264 213 q 296 194 282 194 l 815 194 q 838 203 829 194 q 847 226 847 213 l 847 551 q 838 574 847 565 q 815 583 829 583 m 69 194 l 69 940 q 78 963 69 954 q 101 972 88 972 l 232 972 q 255 963 246 972 q 264 940 264 954 l 264 810 q 273 787 264 796 q 296 778 282 778 l 847 778 q 985 721 928 778 q 1042 583 1042 664 l 1042 194 q 985 57 1042 114 q 847 0 928 0 l 264 0 q 126 57 183 0 q 69 194 69 114 m 1139 32 l 1139 940 q 1148 963 1139 954 q 1171 972 1157 972 l 1301 972 q 1324 963 1315 972 q 1333 940 1333 954 l 1333 32 q 1324 9 1333 18 q 1301 0 1315 0 l 1171 0 q 1148 9 1157 0 q 1139 32 1139 18 z "},"Ь":{"ha":1113,"x_min":69,"x_max":1042,"o":"m 296 194 l 815 194 q 838 203 829 194 q 847 226 847 213 l 847 551 q 838 574 847 565 q 815 583 829 583 l 296 583 q 273 574 282 583 q 264 551 264 565 l 264 226 q 273 203 264 213 q 296 194 282 194 m 69 194 l 69 940 q 78 963 69 954 q 101 972 88 972 l 232 972 q 255 963 246 972 q 264 940 264 954 l 264 810 q 273 787 264 796 q 296 778 282 778 l 847 778 q 985 721 928 778 q 1042 583 1042 664 l 1042 194 q 985 57 1042 114 q 847 0 928 0 l 264 0 q 126 57 183 0 q 69 194 69 114 z "},"Э":{"ha":1015,"x_min":69,"x_max":944,"o":"m 69 32 l 69 163 q 78 185 69 176 q 101 194 88 194 l 718 194 q 741 203 732 194 q 750 226 750 213 l 750 357 q 741 380 750 371 q 718 389 732 389 l 101 389 q 78 398 88 389 q 69 421 69 407 l 69 551 q 78 574 69 565 q 101 583 88 583 l 718 583 q 741 592 732 583 q 750 615 750 601 l 750 746 q 741 769 750 760 q 718 778 732 778 l 101 778 q 78 787 88 778 q 69 810 69 796 l 69 940 q 78 963 69 954 q 101 972 88 972 l 750 972 q 888 915 831 972 q 944 778 944 858 l 944 194 q 888 57 944 114 q 750 0 831 0 l 101 0 q 78 9 88 0 q 69 32 69 18 z "},"Ю":{"ha":1501,"x_min":69,"x_max":1431,"o":"m 685 194 l 1204 194 q 1227 203 1218 194 q 1236 226 1236 213 l 1236 746 q 1227 769 1236 760 q 1204 778 1218 778 l 685 778 q 662 769 671 778 q 653 746 653 760 l 653 226 q 662 203 653 213 q 685 194 671 194 m 69 32 l 69 940 q 78 963 69 954 q 101 972 88 972 l 232 972 q 255 963 246 972 q 264 940 264 954 l 264 615 q 273 592 264 601 q 296 583 282 583 l 426 583 q 449 592 440 583 q 458 615 458 601 l 458 778 q 515 915 458 858 q 653 972 572 972 l 1236 972 q 1374 915 1317 972 q 1431 778 1431 858 l 1431 194 q 1374 57 1431 114 q 1236 0 1317 0 l 653 0 q 515 57 572 0 q 458 194 458 114 l 458 357 q 449 380 458 371 q 426 389 440 389 l 296 389 q 273 380 282 389 q 264 357 264 371 l 264 32 q 255 9 264 18 q 232 0 246 0 l 101 0 q 78 9 88 0 q 69 32 69 18 z "},"Я":{"ha":1113,"x_min":71,"x_max":1043,"o":"m 817 778 l 297 778 q 274 769 283 778 q 265 746 265 760 l 265 421 q 274 398 265 407 q 297 389 283 389 l 817 389 q 840 398 831 389 q 849 421 849 407 l 849 746 q 840 769 849 760 q 817 778 831 778 m 71 389 l 71 778 q 128 915 71 858 q 265 972 185 972 l 849 972 q 986 915 929 972 q 1043 778 1043 858 l 1043 32 q 1034 9 1043 18 q 1011 0 1025 0 l 881 0 q 858 9 867 0 q 849 32 849 18 l 849 163 q 840 185 849 176 q 817 194 831 194 l 669 194 q 614 172 639 194 l 465 24 q 411 0 444 0 l 200 0 q 188 8 192 0 q 190 24 186 17 l 340 172 q 343 186 346 178 q 331 194 339 194 l 265 194 q 128 251 185 194 q 71 389 71 308 z "},"а":{"ha":1111,"x_min":69,"x_max":1042,"o":"m 815 778 l 296 778 q 273 769 282 778 q 264 746 264 760 l 264 421 q 273 398 264 407 q 296 389 282 389 l 815 389 q 838 398 829 389 q 847 421 847 407 l 847 746 q 838 769 847 760 q 815 778 829 778 m 69 32 l 69 778 q 126 915 69 858 q 264 972 183 972 l 847 972 q 985 915 928 972 q 1042 778 1042 858 l 1042 32 q 1033 9 1042 18 q 1010 0 1024 0 l 879 0 q 856 9 865 0 q 847 32 847 18 l 847 163 q 838 185 847 176 q 815 194 829 194 l 296 194 q 273 185 282 194 q 264 163 264 176 l 264 32 q 255 9 264 18 q 232 0 246 0 l 101 0 q 78 9 88 0 q 69 32 69 18 z "},"б":{"ha":1111,"x_min":69,"x_max":1042,"o":"m 815 389 l 296 389 q 273 380 282 389 q 264 357 264 371 l 264 226 q 273 203 264 213 q 296 194 282 194 l 815 194 q 838 203 829 194 q 847 226 847 213 l 847 357 q 838 380 847 371 q 815 389 829 389 m 69 194 l 69 778 q 126 915 69 858 q 264 972 183 972 l 913 972 q 935 963 926 972 q 944 940 944 954 l 944 810 q 935 787 944 796 q 913 778 926 778 l 296 778 q 273 769 282 778 q 264 746 264 760 l 264 615 q 273 592 264 601 q 296 583 282 583 l 847 583 q 985 526 928 583 q 1042 389 1042 469 l 1042 194 q 985 57 1042 114 q 847 0 928 0 l 264 0 q 126 57 183 0 q 69 194 69 114 z "},"в":{"ha":1113,"x_min":69,"x_max":1042,"o":"m 296 194 l 815 194 q 838 203 829 194 q 847 226 847 213 l 847 357 q 838 380 847 371 q 815 389 829 389 l 296 389 q 273 380 282 389 q 264 357 264 371 l 264 226 q 273 203 264 213 q 296 194 282 194 m 296 583 l 815 583 q 838 592 829 583 q 847 615 847 601 l 847 746 q 838 769 847 760 q 815 778 829 778 l 296 778 q 273 769 282 778 q 264 746 264 760 l 264 615 q 273 592 264 601 q 296 583 282 583 m 69 194 l 69 778 q 126 915 69 858 q 264 972 183 972 l 847 972 q 985 915 928 972 q 1042 778 1042 858 l 1042 653 q 993 535 1042 583 l 944 486 l 993 438 q 1042 319 1042 389 l 1042 194 q 985 57 1042 114 q 847 0 928 0 l 264 0 q 126 57 183 0 q 69 194 69 114 z "},"г":{"ha":1014,"x_min":69,"x_max":944,"o":"m 69 778 q 126 915 69 858 q 264 972 183 972 l 913 972 q 935 963 926 972 q 944 940 944 954 l 944 810 q 935 787 944 796 q 913 778 926 778 l 296 778 q 273 769 282 778 q 264 746 264 760 l 264 32 q 255 9 264 18 q 232 0 246 0 l 101 0 q 78 9 88 0 q 69 32 69 18 l 69 778 z "},"д":{"ha":1167,"x_min":0,"x_max":1167,"o":"m 843 778 l 324 778 q 301 769 310 778 q 292 746 292 760 l 292 226 q 301 203 292 213 q 324 194 310 194 l 843 194 q 866 203 857 194 q 875 226 875 213 l 875 746 q 866 769 875 760 q 843 778 857 778 m 97 226 l 97 778 q 154 915 97 858 q 292 972 211 972 l 875 972 q 1013 915 956 972 q 1069 778 1069 858 l 1069 226 q 1078 203 1069 213 q 1101 194 1088 194 l 1135 194 q 1158 185 1149 194 q 1167 163 1167 176 l 1167 32 q 1158 9 1167 18 q 1135 0 1149 0 l 32 0 q 9 9 18 0 q 0 32 0 18 l 0 163 q 9 185 0 176 q 32 194 18 194 l 65 194 q 88 203 79 194 q 97 226 97 213 z "},"е":{"ha":1015,"x_min":69,"x_max":944,"o":"m 69 194 l 69 778 q 126 915 69 858 q 264 972 183 972 l 913 972 q 935 963 926 972 q 944 940 944 954 l 944 810 q 935 787 944 796 q 913 778 926 778 l 296 778 q 273 769 282 778 q 264 746 264 760 l 264 615 q 273 592 264 601 q 296 583 282 583 l 913 583 q 935 574 926 583 q 944 551 944 565 l 944 421 q 935 398 944 407 q 913 389 926 389 l 296 389 q 273 380 282 389 q 264 357 264 371 l 264 226 q 273 203 264 213 q 296 194 282 194 l 913 194 q 935 185 926 194 q 944 163 944 176 l 944 32 q 935 9 944 18 q 913 0 926 0 l 264 0 q 126 57 183 0 q 69 194 69 114 z "},"ж":{"ha":1501,"x_min":69,"x_max":1431,"o":"m 69 32 l 69 321 q 138 457 69 389 l 167 486 l 118 535 q 84 589 99 554 q 69 651 69 624 l 69 940 q 78 963 69 954 q 101 972 88 972 l 232 972 q 255 963 246 972 q 264 940 264 954 l 264 615 q 273 592 264 601 q 296 583 282 583 l 621 583 q 644 592 635 583 q 653 615 653 601 l 653 940 q 662 963 653 954 q 685 972 671 972 l 815 972 q 838 963 829 972 q 847 940 847 954 l 847 615 q 856 592 847 601 q 879 583 865 583 l 1204 583 q 1227 592 1218 583 q 1236 615 1236 601 l 1236 940 q 1245 963 1236 954 q 1268 972 1254 972 l 1399 972 q 1422 963 1413 972 q 1431 940 1431 954 l 1431 651 q 1382 535 1431 583 l 1333 486 l 1382 438 q 1431 321 1431 389 l 1431 32 q 1422 9 1431 18 q 1399 0 1413 0 l 1268 0 q 1245 9 1254 0 q 1236 32 1236 18 l 1236 357 q 1227 380 1236 371 q 1204 389 1218 389 l 879 389 q 856 380 865 389 q 847 357 847 371 l 847 32 q 838 9 847 18 q 815 0 829 0 l 685 0 q 662 9 671 0 q 653 32 653 18 l 653 357 q 644 380 653 371 q 621 389 635 389 l 296 389 q 273 380 282 389 q 264 357 264 371 l 264 32 q 255 9 264 18 q 232 0 246 0 l 101 0 q 78 9 88 0 q 69 32 69 18 z "},"з":{"ha":1015,"x_min":69,"x_max":944,"o":"m 69 32 l 69 163 q 78 185 69 176 q 101 194 88 194 l 718 194 q 741 203 732 194 q 750 226 750 213 l 750 357 q 741 380 750 371 q 718 389 732 389 l 101 389 q 78 398 88 389 q 69 421 69 407 l 69 551 q 78 574 69 565 q 101 583 88 583 l 718 583 q 741 592 732 583 q 750 615 750 601 l 750 746 q 741 769 750 760 q 718 778 732 778 l 101 778 q 78 787 88 778 q 69 810 69 796 l 69 940 q 78 963 69 954 q 101 972 88 972 l 750 972 q 888 915 831 972 q 944 778 944 858 l 944 651 q 896 535 944 583 l 847 486 l 896 438 q 944 321 944 389 l 944 194 q 888 57 944 114 q 750 0 831 0 l 101 0 q 78 9 88 0 q 69 32 69 18 z "},"и":{"ha":1111,"x_min":69,"x_max":1042,"o":"m 1042 32 q 1032 10 1042 19 q 1008 0 1022 0 l 879 0 q 856 10 865 0 q 847 32 847 19 l 847 642 q 841 658 847 656 q 825 650 835 660 q 285 25 479 247 q 232 0 265 0 l 101 0 q 78 10 88 0 q 69 32 69 19 l 69 940 q 78 963 69 953 q 101 972 88 972 l 232 972 q 254 963 244 972 q 264 940 264 953 l 264 329 q 271 318 264 321 q 285 322 279 317 l 825 947 q 879 972 847 972 l 1008 972 q 1032 963 1022 972 q 1042 940 1042 953 q 1042 486 1040 940 l 1042 32 z "},"й":{"ha":1114,"x_min":69,"x_max":1043,"o":"m 376 1228 q 385 1251 376 1242 q 408 1260 394 1260 l 879 1260 q 892 1251 888 1260 q 890 1235 896 1243 l 397 647 q 383 644 390 640 q 376 656 376 647 l 376 1228 m 69 942 q 79 965 69 956 q 101 974 89 974 l 232 974 q 255 965 246 974 q 264 942 264 956 l 264 331 q 272 319 264 322 q 286 322 279 317 l 826 950 q 881 974 847 974 l 1011 974 q 1034 965 1025 974 q 1043 942 1043 956 l 1043 33 q 1034 10 1043 19 q 1011 0 1025 0 l 881 0 q 858 10 867 0 q 849 33 849 19 l 849 644 q 840 656 849 653 l 836 656 q 828 651 831 656 l 286 25 q 232 0 264 0 l 101 0 q 79 10 89 0 q 69 33 69 21 l 69 942 z "},"к":{"ha":1094,"x_min":69,"x_max":1025,"o":"m 69 32 l 69 940 q 78 963 69 954 q 101 972 88 972 l 232 972 q 255 963 246 972 q 264 940 264 954 l 264 615 q 273 592 264 601 q 296 583 282 583 l 417 583 q 469 608 450 583 l 764 947 q 817 972 783 972 l 1010 972 q 1022 964 1019 972 q 1021 947 1025 957 l 643 511 q 643 461 621 486 l 1021 25 q 1022 8 1025 15 q 1010 0 1019 0 l 817 0 q 764 25 783 0 l 469 364 q 417 389 450 389 l 296 389 q 273 380 282 389 q 264 357 264 371 l 264 32 q 255 9 264 18 q 232 0 246 0 l 101 0 q 78 9 88 0 q 69 32 69 18 z "},"л":{"ha":1104,"x_min":67,"x_max":1035,"o":"m 271 778 q 365 918 294 864 q 524 972 435 972 l 1001 972 q 1025 963 1015 972 q 1035 940 1035 954 l 1035 32 q 1025 9 1035 18 q 1001 0 1015 0 l 872 0 q 849 9 858 0 q 840 32 840 18 l 840 746 q 831 769 840 760 q 807 778 821 778 l 504 778 q 464 746 471 778 l 272 32 q 231 0 263 0 l 94 0 q 75 10 82 0 q 71 32 67 18 l 271 778 z "},"м":{"ha":1500,"x_min":69,"x_max":1431,"o":"m 69 940 q 78 963 69 954 q 101 972 88 972 l 232 972 q 285 947 267 972 l 750 410 q 1215 947 904 589 q 1268 972 1235 972 l 1399 972 q 1422 963 1413 972 q 1431 940 1431 954 l 1431 32 q 1421 9 1431 18 q 1399 0 1411 0 l 1268 0 q 1245 9 1254 0 q 1236 32 1236 18 l 1236 643 q 1230 658 1236 656 q 1215 650 1224 660 q 771 136 1090 507 q 750 126 761 126 q 729 136 739 126 q 285 650 410 507 q 270 658 276 660 q 264 642 264 656 l 264 32 q 255 9 264 18 q 232 0 246 0 l 103 0 q 79 9 89 0 q 69 32 69 18 l 69 940 z "},"н":{"ha":1113,"x_min":69,"x_max":1042,"o":"m 69 33 l 69 942 q 78 965 69 956 q 101 974 88 974 l 232 974 q 255 965 246 974 q 264 942 264 956 l 264 617 q 273 594 264 603 q 296 585 282 585 l 815 585 q 838 594 829 585 q 847 617 847 603 l 847 942 q 856 965 847 956 q 879 974 865 974 l 1010 974 q 1033 965 1024 974 q 1042 942 1042 956 l 1042 33 q 1033 10 1042 19 q 1010 1 1024 1 l 879 1 q 856 10 865 1 q 847 33 847 19 l 847 358 q 838 381 847 372 q 815 390 829 390 l 296 390 q 273 381 282 390 q 264 358 264 372 l 264 33 q 255 10 264 19 q 232 1 246 1 l 101 1 q 78 10 88 1 q 69 33 69 19 z "},"о":{"ha":1111,"x_min":69,"x_max":1042,"o":"m 69 194 l 69 778 q 126 915 69 858 q 264 972 183 972 l 847 972 q 985 915 928 972 q 1042 778 1042 858 l 1042 194 q 985 57 1042 114 q 847 0 928 0 l 264 0 q 126 57 183 0 q 69 194 69 114 m 296 194 l 815 194 q 838 203 829 194 q 847 226 847 213 l 847 746 q 838 769 847 760 q 815 778 829 778 l 296 778 q 273 769 282 778 q 264 746 264 760 l 264 226 q 273 203 264 213 q 296 194 282 194 z "},"п":{"ha":1111,"x_min":69,"x_max":1042,"o":"m 69 778 q 126 915 69 858 q 264 972 183 972 l 847 972 q 985 915 928 972 q 1042 778 1042 858 l 1042 32 q 1033 9 1042 18 q 1010 0 1024 0 l 879 0 q 856 9 865 0 q 847 32 847 18 l 847 746 q 838 769 847 760 q 815 778 829 778 l 296 778 q 273 769 282 778 q 264 746 264 760 l 264 32 q 255 9 264 18 q 232 0 246 0 l 101 0 q 78 9 88 0 q 69 32 69 18 l 69 778 z "},"р":{"ha":1113,"x_min":69,"x_max":1042,"o":"m 815 778 l 296 778 q 273 769 282 778 q 264 746 264 760 l 264 421 q 273 398 264 407 q 296 389 282 389 l 815 389 q 838 398 829 389 q 847 421 847 407 l 847 746 q 838 769 847 760 q 815 778 829 778 m 69 32 l 69 778 q 126 915 69 858 q 264 972 183 972 l 847 972 q 985 915 928 972 q 1042 778 1042 858 l 1042 389 q 985 251 1042 308 q 847 194 928 194 l 296 194 q 273 185 282 194 q 264 163 264 176 l 264 32 q 255 9 264 18 q 232 0 246 0 l 101 0 q 78 9 88 0 q 69 32 69 18 z "},"с":{"ha":1015,"x_min":69,"x_max":944,"o":"m 69 194 l 69 778 q 126 915 69 858 q 264 972 183 972 l 913 972 q 935 963 926 972 q 944 940 944 954 l 944 810 q 935 787 944 796 q 913 778 926 778 l 296 778 q 273 769 282 778 q 264 746 264 760 l 264 226 q 273 203 264 213 q 296 194 282 194 l 913 194 q 935 185 926 194 q 944 163 944 176 l 944 32 q 935 9 944 18 q 913 0 926 0 l 264 0 q 126 57 183 0 q 69 194 69 114 z "},"т":{"ha":1113,"x_min":69,"x_max":1042,"o":"m 69 940 q 78 963 69 954 q 101 972 88 972 l 1010 972 q 1033 963 1024 972 q 1042 940 1042 954 l 1042 810 q 1033 787 1042 796 q 1010 778 1024 778 l 685 778 q 662 769 671 778 q 653 746 653 760 l 653 32 q 644 9 653 18 q 621 0 635 0 l 490 0 q 467 9 476 0 q 458 32 458 18 l 458 746 q 449 769 458 760 q 426 778 440 778 l 101 778 q 78 787 88 778 q 69 810 69 796 l 69 940 z "},"у":{"ha":1111,"x_min":69,"x_max":1042,"o":"m 69 940 q 78 963 69 954 q 101 972 88 972 l 232 972 q 255 963 246 972 q 264 940 264 954 l 264 615 q 273 592 264 601 q 296 583 282 583 l 815 583 q 838 592 829 583 q 847 615 847 601 l 847 940 q 856 963 847 954 q 879 972 865 972 l 1010 972 q 1033 963 1024 972 q 1042 940 1042 954 l 1042 194 q 985 57 1042 114 q 847 0 928 0 l 199 0 q 176 9 185 0 q 167 32 167 18 l 167 163 q 176 185 167 176 q 199 194 185 194 l 815 194 q 838 203 829 194 q 847 226 847 213 l 847 357 q 838 380 847 371 q 815 389 829 389 l 264 389 q 126 446 183 389 q 69 583 69 503 l 69 940 z "},"ф":{"ha":1501,"x_min":69,"x_max":1431,"o":"m 621 778 l 296 778 q 273 769 282 778 q 264 746 264 760 l 264 421 q 273 398 264 407 q 296 389 282 389 l 621 389 q 644 398 635 389 q 653 421 653 407 l 653 746 q 644 769 653 760 q 621 778 635 778 m 1204 778 l 879 778 q 856 769 865 778 q 847 746 847 760 l 847 421 q 856 398 847 407 q 879 389 865 389 l 1204 389 q 1227 398 1218 389 q 1236 421 1236 407 l 1236 746 q 1227 769 1236 760 q 1204 778 1218 778 m 69 389 l 69 778 q 126 915 69 858 q 264 972 183 972 l 1236 972 q 1374 915 1317 972 q 1431 778 1431 858 l 1431 389 q 1374 251 1431 308 q 1236 194 1317 194 l 879 194 q 856 185 865 194 q 847 163 847 176 l 847 32 q 838 9 847 18 q 815 0 829 0 l 685 0 q 662 9 671 0 q 653 32 653 18 l 653 163 q 644 185 653 176 q 621 194 635 194 l 264 194 q 126 251 183 194 q 69 389 69 308 z "},"х":{"ha":1083,"x_min":67,"x_max":1017,"o":"m 75 26 l 400 460 q 400 513 419 488 l 75 946 q 70 965 67 957 q 88 972 74 972 l 265 972 q 318 946 299 972 l 522 674 q 542 664 529 664 q 561 674 554 664 l 765 946 q 817 972 785 972 l 994 972 q 1013 965 1008 972 q 1008 946 1017 957 q 682 513 792 657 q 682 460 665 486 l 1008 26 q 1013 8 1017 17 q 994 0 1008 0 l 817 0 q 765 26 785 0 l 561 299 q 542 308 554 308 q 522 299 529 308 l 318 26 q 265 0 299 0 l 88 0 q 70 8 74 0 q 75 26 67 17 z "},"ц":{"ha":1210,"x_min":69,"x_max":1139,"o":"m 69 940 q 78 963 69 954 q 101 972 88 972 l 232 972 q 255 963 246 972 q 264 940 264 954 l 264 226 q 273 203 264 213 q 296 194 282 194 l 815 194 q 838 203 829 194 q 847 226 847 213 l 847 940 q 856 963 847 954 q 879 972 865 972 l 1010 972 q 1033 963 1024 972 q 1042 940 1042 954 l 1042 226 q 1051 203 1042 213 q 1074 194 1060 194 l 1107 194 q 1130 185 1121 194 q 1139 163 1139 176 l 1139 32 q 1130 9 1139 18 q 1107 0 1121 0 l 264 0 q 126 57 183 0 q 69 194 69 114 l 69 940 z "},"ч":{"ha":1113,"x_min":69,"x_max":1042,"o":"m 69 940 q 78 963 69 954 q 101 972 88 972 l 232 972 q 255 963 246 972 q 264 940 264 954 l 264 421 q 273 398 264 407 q 296 389 282 389 l 815 389 q 838 398 829 389 q 847 421 847 407 l 847 940 q 856 963 847 954 q 879 972 865 972 l 1010 972 q 1033 963 1024 972 q 1042 940 1042 954 l 1042 32 q 1033 9 1042 18 q 1010 0 1024 0 l 879 0 q 856 9 865 0 q 847 32 847 18 l 847 163 q 838 185 847 176 q 815 194 829 194 l 264 194 q 126 251 183 194 q 69 389 69 308 l 69 940 z "},"ш":{"ha":1501,"x_min":69,"x_max":1431,"o":"m 69 940 q 78 963 69 954 q 101 972 88 972 l 232 972 q 255 963 246 972 q 264 940 264 954 l 264 226 q 273 203 264 213 q 296 194 282 194 l 621 194 q 644 203 635 194 q 653 226 653 213 l 653 940 q 662 963 653 954 q 685 972 671 972 l 815 972 q 838 963 829 972 q 847 940 847 954 l 847 226 q 856 203 847 213 q 879 194 865 194 l 1204 194 q 1227 203 1218 194 q 1236 226 1236 213 l 1236 940 q 1245 963 1236 954 q 1268 972 1254 972 l 1399 972 q 1422 963 1413 972 q 1431 940 1431 954 l 1431 194 q 1374 57 1431 114 q 1236 0 1317 0 l 264 0 q 126 57 183 0 q 69 194 69 114 l 69 940 z "},"щ":{"ha":1599,"x_min":69,"x_max":1528,"o":"m 69 940 q 78 963 69 954 q 101 972 88 972 l 232 972 q 255 963 246 972 q 264 940 264 954 l 264 226 q 273 203 264 213 q 296 194 282 194 l 621 194 q 644 203 635 194 q 653 226 653 213 l 653 940 q 662 963 653 954 q 685 972 671 972 l 815 972 q 838 963 829 972 q 847 940 847 954 l 847 226 q 856 203 847 213 q 879 194 865 194 l 1204 194 q 1227 203 1218 194 q 1236 226 1236 213 l 1236 940 q 1245 963 1236 954 q 1268 972 1254 972 l 1399 972 q 1422 963 1413 972 q 1431 940 1431 954 l 1431 226 q 1440 203 1431 213 q 1463 194 1449 194 l 1496 194 q 1519 185 1510 194 q 1528 163 1528 176 l 1528 32 q 1519 9 1528 18 q 1496 0 1510 0 l 264 0 q 126 57 183 0 q 69 194 69 114 l 69 940 z "},"ъ":{"ha":1210,"x_min":69,"x_max":1139,"o":"m 913 583 l 393 583 q 370 574 379 583 q 361 551 361 565 l 361 226 q 370 203 361 213 q 393 194 379 194 l 913 194 q 935 203 926 194 q 944 226 944 213 l 944 551 q 935 574 944 565 q 913 583 926 583 m 69 810 l 69 940 q 78 963 69 954 q 101 972 88 972 l 329 972 q 352 963 343 972 q 361 940 361 954 l 361 810 q 370 787 361 796 q 393 778 379 778 l 944 778 q 1082 721 1025 778 q 1139 583 1139 664 l 1139 194 q 1082 57 1139 114 q 944 0 1025 0 l 361 0 q 224 57 281 0 q 167 194 167 114 l 167 746 q 158 769 167 760 q 135 778 149 778 l 101 778 q 78 787 88 778 q 69 810 69 796 z "},"ы":{"ha":1404,"x_min":69,"x_max":1333,"o":"m 815 583 l 296 583 q 273 574 282 583 q 264 551 264 565 l 264 226 q 273 203 264 213 q 296 194 282 194 l 815 194 q 838 203 829 194 q 847 226 847 213 l 847 551 q 838 574 847 565 q 815 583 829 583 m 69 194 l 69 940 q 78 963 69 954 q 101 972 88 972 l 232 972 q 255 963 246 972 q 264 940 264 954 l 264 810 q 273 787 264 796 q 296 778 282 778 l 847 778 q 985 721 928 778 q 1042 583 1042 664 l 1042 194 q 985 57 1042 114 q 847 0 928 0 l 264 0 q 126 57 183 0 q 69 194 69 114 m 1139 32 l 1139 940 q 1148 963 1139 954 q 1171 972 1157 972 l 1301 972 q 1324 963 1315 972 q 1333 940 1333 954 l 1333 32 q 1324 9 1333 18 q 1301 0 1315 0 l 1171 0 q 1148 9 1157 0 q 1139 32 1139 18 z "},"ь":{"ha":1113,"x_min":69,"x_max":1042,"o":"m 296 194 l 815 194 q 838 203 829 194 q 847 226 847 213 l 847 551 q 838 574 847 565 q 815 583 829 583 l 296 583 q 273 574 282 583 q 264 551 264 565 l 264 226 q 273 203 264 213 q 296 194 282 194 m 69 194 l 69 940 q 78 963 69 954 q 101 972 88 972 l 232 972 q 255 963 246 972 q 264 940 264 954 l 264 810 q 273 787 264 796 q 296 778 282 778 l 847 778 q 985 721 928 778 q 1042 583 1042 664 l 1042 194 q 985 57 1042 114 q 847 0 928 0 l 264 0 q 126 57 183 0 q 69 194 69 114 z "},"э":{"ha":1015,"x_min":69,"x_max":944,"o":"m 69 32 l 69 163 q 78 185 69 176 q 101 194 88 194 l 718 194 q 741 203 732 194 q 750 226 750 213 l 750 357 q 741 380 750 371 q 718 389 732 389 l 101 389 q 78 398 88 389 q 69 421 69 407 l 69 551 q 78 574 69 565 q 101 583 88 583 l 718 583 q 741 592 732 583 q 750 615 750 601 l 750 746 q 741 769 750 760 q 718 778 732 778 l 101 778 q 78 787 88 778 q 69 810 69 796 l 69 940 q 78 963 69 954 q 101 972 88 972 l 750 972 q 888 915 831 972 q 944 778 944 858 l 944 194 q 888 57 944 114 q 750 0 831 0 l 101 0 q 78 9 88 0 q 69 32 69 18 z "},"ю":{"ha":1501,"x_min":69,"x_max":1431,"o":"m 685 194 l 1204 194 q 1227 203 1218 194 q 1236 226 1236 213 l 1236 746 q 1227 769 1236 760 q 1204 778 1218 778 l 685 778 q 662 769 671 778 q 653 746 653 760 l 653 226 q 662 203 653 213 q 685 194 671 194 m 69 32 l 69 940 q 78 963 69 954 q 101 972 88 972 l 232 972 q 255 963 246 972 q 264 940 264 954 l 264 615 q 273 592 264 601 q 296 583 282 583 l 426 583 q 449 592 440 583 q 458 615 458 601 l 458 778 q 515 915 458 858 q 653 972 572 972 l 1236 972 q 1374 915 1317 972 q 1431 778 1431 858 l 1431 194 q 1374 57 1431 114 q 1236 0 1317 0 l 653 0 q 515 57 572 0 q 458 194 458 114 l 458 357 q 449 380 458 371 q 426 389 440 389 l 296 389 q 273 380 282 389 q 264 357 264 371 l 264 32 q 255 9 264 18 q 232 0 246 0 l 101 0 q 78 9 88 0 q 69 32 69 18 z "},"я":{"ha":1113,"x_min":71,"x_max":1043,"o":"m 817 778 l 297 778 q 274 769 283 778 q 265 746 265 760 l 265 421 q 274 398 265 407 q 297 389 283 389 l 817 389 q 840 398 831 389 q 849 421 849 407 l 849 746 q 840 769 849 760 q 817 778 831 778 m 71 389 l 71 778 q 128 915 71 858 q 265 972 185 972 l 849 972 q 986 915 929 972 q 1043 778 1043 858 l 1043 32 q 1034 9 1043 18 q 1011 0 1025 0 l 881 0 q 858 9 867 0 q 849 32 849 18 l 849 163 q 840 185 849 176 q 817 194 831 194 l 669 194 q 614 172 639 194 l 465 24 q 411 0 444 0 l 200 0 q 188 8 192 0 q 190 24 186 17 l 340 172 q 343 186 346 178 q 331 194 339 194 l 265 194 q 128 251 185 194 q 71 389 71 308 z "},"ё":{"ha":1013,"x_min":69,"x_max":942,"o":"m 264 1226 q 273 1250 264 1240 q 294 1260 282 1260 l 425 1260 q 449 1250 439 1260 q 458 1226 458 1240 l 458 1099 q 449 1075 458 1085 q 425 1065 439 1065 l 294 1065 q 273 1075 282 1065 q 264 1099 264 1085 l 264 1226 m 651 1226 q 660 1250 651 1240 q 683 1260 669 1260 l 815 1260 q 837 1250 828 1260 q 846 1226 846 1240 l 846 1099 q 837 1075 846 1085 q 815 1065 828 1065 l 683 1065 q 660 1075 669 1065 q 651 1099 651 1085 l 651 1226 m 69 774 q 126 911 69 854 q 264 968 183 968 l 911 968 q 933 959 924 968 q 942 936 942 950 l 942 807 q 933 783 942 793 q 911 774 924 774 l 294 774 q 273 765 282 774 q 264 743 264 756 l 264 613 q 273 590 264 599 q 294 581 282 581 l 911 581 q 933 572 924 581 q 942 549 942 563 l 942 418 q 933 397 942 406 q 911 388 924 388 l 294 388 q 273 378 282 388 q 264 354 264 368 l 264 225 q 273 202 264 211 q 294 193 282 193 l 911 193 q 933 183 924 193 q 942 160 942 174 l 942 32 q 933 8 942 18 q 911 -1 924 -1 l 264 -1 q 126 56 183 -1 q 69 193 69 113 l 69 774 z "},"–":{"ha":622,"x_min":69,"x_max":553,"o":"m 101 401 q 79 410 89 401 q 69 433 69 419 l 69 564 q 79 587 69 578 q 101 596 89 596 l 521 596 q 544 587 535 596 q 553 564 553 578 l 553 433 q 544 410 553 419 q 521 401 535 401 l 101 401 z "},"—":{"ha":1111,"x_min":69,"x_max":1042,"o":"m 1010 594 q 1033 585 1024 594 q 1042 563 1042 576 l 1042 433 q 1033 410 1042 419 q 1010 401 1024 401 l 101 401 q 78 410 88 401 q 69 433 69 419 l 69 563 q 78 585 69 576 q 101 594 88 594 l 1010 594 z "},"‘":{"ha":333,"x_min":69,"x_max":264,"o":"m 264 714 q 255 690 264 700 q 232 681 246 681 l 101 681 q 78 690 88 681 q 69 714 69 700 l 69 843 q 99 890 69 875 l 264 972 l 264 714 z "},"’":{"ha":333,"x_min":69,"x_max":264,"o":"m 69 939 q 78 963 69 953 q 101 972 88 972 l 232 972 q 255 963 246 972 q 264 939 264 953 l 264 810 q 235 763 264 778 l 69 681 l 69 939 z "},"‚":{"ha":333,"x_min":69,"x_max":264,"o":"m 69 161 q 78 185 69 175 q 101 194 88 194 l 232 194 q 255 185 246 194 q 264 161 264 175 l 264 32 q 235 -15 264 0 l 69 -97 l 69 161 z "},"“":{"ha":624,"x_min":69,"x_max":554,"o":"m 264 940 l 264 682 l 99 765 q 69 811 69 779 l 69 940 q 78 963 69 954 q 101 972 88 972 l 231 972 q 254 963 244 972 q 264 940 264 954 m 554 940 l 554 682 l 389 765 q 360 811 360 779 l 360 940 q 369 963 360 954 q 393 972 379 972 l 521 972 q 544 963 535 972 q 554 940 554 954 z "},"”":{"ha":624,"x_min":69,"x_max":554,"o":"m 525 765 l 360 682 l 360 940 q 369 963 360 954 q 393 972 379 972 l 522 972 q 545 963 536 972 q 554 940 554 954 l 554 811 q 525 765 554 779 m 235 765 l 69 682 l 69 940 q 79 963 69 954 q 103 972 89 972 l 231 972 q 254 963 244 972 q 264 940 264 954 l 264 811 q 235 765 264 779 z "},"„":{"ha":624,"x_min":69,"x_max":554,"o":"m 525 -14 l 360 -97 l 360 161 q 369 184 360 175 q 393 193 379 193 l 522 193 q 545 184 536 193 q 554 161 554 175 l 554 32 q 525 -14 554 0 m 235 -14 l 69 -97 l 69 161 q 79 184 69 175 q 103 193 89 193 l 231 193 q 254 184 244 193 q 264 161 264 175 l 264 32 q 235 -14 264 0 z "},"…":{"ha":917,"x_min":69,"x_max":847,"o":"m 103 0 q 79 10 89 0 q 69 33 69 19 l 69 163 q 79 185 69 176 q 103 194 89 194 l 231 194 q 254 185 244 194 q 264 163 264 176 l 264 33 q 254 10 264 19 q 231 0 244 0 l 103 0 m 394 0 q 371 10 381 0 q 361 33 361 19 l 361 163 q 371 185 361 176 q 394 194 381 194 l 522 194 q 546 185 536 194 q 556 163 556 176 l 556 33 q 546 10 556 19 q 522 0 536 0 l 394 0 m 685 0 q 662 10 671 0 q 653 33 653 19 l 653 163 q 662 185 653 176 q 685 194 671 194 l 815 194 q 838 185 828 194 q 847 163 847 176 l 847 33 q 838 10 847 19 q 815 0 828 0 l 685 0 z "},"‰":{"ha":1847,"x_min":69,"x_max":1778,"o":"m 264 972 l 361 972 q 499 915 442 972 q 556 778 556 858 l 556 681 q 499 543 556 600 q 361 486 442 486 l 264 486 q 126 543 183 486 q 69 681 69 600 l 69 778 q 126 915 69 858 q 264 972 183 972 m 199 0 q 181 8 185 0 q 186 26 178 17 q 876 946 644 639 q 928 972 896 972 l 1106 972 q 1123 964 1119 972 q 1119 946 1126 956 q 429 26 604 261 q 376 0 408 0 l 199 0 m 296 778 q 273 769 282 778 q 264 746 264 760 l 264 713 q 273 690 264 699 q 296 681 282 681 l 329 681 q 352 690 343 681 q 361 713 361 699 l 361 746 q 352 769 361 760 q 329 778 343 778 l 296 778 m 944 486 l 1042 486 q 1179 429 1122 486 q 1236 292 1236 372 l 1236 194 q 1179 57 1236 114 q 1042 0 1122 0 l 944 0 q 807 57 864 0 q 750 194 750 114 l 750 292 q 807 429 750 372 q 944 486 864 486 m 1486 486 l 1583 486 q 1721 429 1664 486 q 1778 292 1778 372 l 1778 194 q 1721 57 1778 114 q 1583 0 1664 0 l 1486 0 q 1349 57 1406 0 q 1292 194 1292 114 l 1292 292 q 1349 429 1292 372 q 1486 486 1406 486 m 976 292 q 953 283 963 292 q 944 260 944 274 l 944 226 q 953 203 944 213 q 976 194 963 194 l 1010 194 q 1032 203 1022 194 q 1042 226 1042 213 l 1042 260 q 1032 283 1042 274 q 1010 292 1022 292 l 976 292 m 1518 292 q 1495 283 1504 292 q 1486 260 1486 274 l 1486 226 q 1495 203 1486 213 q 1518 194 1504 194 l 1551 194 q 1574 203 1564 194 q 1583 226 1583 213 l 1583 260 q 1574 283 1583 274 q 1551 292 1564 292 l 1518 292 z "},"‹":{"ha":599,"x_min":57,"x_max":542,"o":"m 382 156 q 231 306 332 206 q 79 457 131 407 q 79 503 57 481 q 383 806 281 704 q 404 815 392 815 q 426 806 417 815 l 517 715 q 518 668 540 692 l 331 479 l 517 293 q 518 246 542 269 l 426 156 q 404 146 418 146 q 382 156 392 146 z "},"›":{"ha":599,"x_min":58,"x_max":542,"o":"m 519 457 l 217 154 q 194 144 207 144 q 172 154 185 144 l 81 246 q 81 292 58 269 l 268 479 l 81 668 q 81 714 58 692 l 172 806 q 194 815 182 815 q 217 806 208 815 l 519 503 q 519 457 542 481 z "},"€":{"ha":1208,"x_min":69,"x_max":1139,"o":"m 167 194 l 167 265 l 165 267 l 101 267 q 78 276 88 267 q 69 300 69 286 l 69 429 q 78 452 69 443 q 101 461 88 461 l 165 461 l 167 463 l 167 510 l 165 511 l 101 511 q 78 520 88 511 q 69 543 69 529 l 69 672 q 78 696 69 686 q 101 706 88 706 l 167 707 l 167 778 q 224 915 167 858 q 361 972 281 972 l 944 972 q 1082 915 1025 972 q 1139 778 1139 858 l 1139 713 q 1130 690 1139 699 q 1107 681 1121 681 l 976 681 q 954 690 964 681 q 944 713 944 699 l 944 746 q 935 769 944 760 q 913 778 926 778 l 393 778 q 370 769 379 778 q 361 746 361 760 l 361 707 l 363 706 l 718 706 q 741 696 732 706 q 750 672 750 686 l 750 543 q 741 520 750 529 q 718 511 732 511 l 363 511 l 361 510 l 363 461 l 718 461 q 741 452 732 461 q 750 429 750 443 l 750 300 q 741 276 750 286 q 718 267 732 267 l 361 265 l 361 226 q 370 203 361 213 q 393 194 379 194 l 913 194 q 935 203 926 194 q 944 226 944 213 l 944 260 q 954 283 944 274 q 976 292 964 292 l 1107 292 q 1130 283 1121 292 q 1139 260 1139 274 l 1139 194 q 1082 57 1139 114 q 944 0 1025 0 l 361 0 q 224 57 281 0 q 167 194 167 114 z "},"₽":{"ha":1210,"x_min":69,"x_max":1140,"o":"m 913 778 l 393 778 q 371 769 381 778 q 361 746 361 760 l 361 583 l 913 583 q 935 593 926 583 q 944 615 944 603 l 944 746 q 935 769 944 760 q 913 778 926 778 m 167 32 l 167 146 l 101 146 q 79 155 89 146 q 69 178 69 164 l 69 308 q 79 331 69 322 q 101 340 89 340 l 167 340 l 167 389 l 101 389 q 79 399 89 389 q 69 421 69 408 l 69 550 q 79 574 69 564 q 101 583 89 583 l 167 583 l 167 615 q 168 781 167 735 q 225 916 168 860 q 361 972 282 972 l 947 972 q 1084 916 1028 972 q 1140 781 1140 860 l 1140 582 q 1084 445 1140 501 q 947 389 1028 389 l 361 389 l 361 340 l 913 340 q 935 331 926 340 q 944 308 944 322 l 944 178 q 935 155 944 164 q 913 146 926 146 l 361 146 l 361 32 q 352 9 361 18 q 329 0 343 0 l 199 0 q 176 9 186 0 q 167 32 167 18 z "},"№":{"ha":1699,"x_min":69,"x_max":1629,"o":"m 1401 779 l 1368 779 q 1346 769 1356 779 q 1336 747 1336 760 l 1336 714 q 1346 691 1336 700 q 1368 682 1356 682 l 1401 682 q 1424 691 1415 682 q 1433 714 1433 700 l 1433 747 q 1424 769 1433 760 q 1401 779 1415 779 m 69 32 l 69 942 q 79 965 69 956 q 101 974 89 974 l 232 974 q 286 950 265 974 l 828 322 q 842 318 833 317 q 849 329 849 321 l 849 942 q 858 965 849 956 q 881 974 868 974 l 1011 974 q 1035 965 1025 974 q 1044 942 1044 956 l 1044 32 q 1035 9 1044 18 q 1011 0 1025 0 l 881 0 q 828 24 849 0 l 286 651 q 272 654 281 657 q 264 643 264 653 l 264 32 q 255 9 264 18 q 232 0 246 0 l 101 0 q 79 9 89 0 q 69 32 69 18 m 1142 226 l 1142 357 q 1151 380 1142 371 q 1174 389 1160 389 l 1596 389 q 1619 380 1610 389 q 1629 357 1629 371 l 1629 226 q 1619 203 1629 213 q 1596 194 1610 194 l 1174 194 q 1151 203 1160 194 q 1142 226 1142 213 m 1142 682 l 1142 779 q 1199 917 1142 861 q 1336 974 1256 974 l 1433 974 q 1572 917 1514 974 q 1629 779 1629 860 l 1629 682 q 1572 544 1629 601 q 1433 486 1514 486 l 1336 486 q 1199 543 1256 486 q 1142 682 1142 600 z "},"™":{"ha":1185,"x_min":69,"x_max":1114,"o":"m 475 1268 q 488 1256 488 1268 l 488 1210 q 475 1197 488 1197 l 324 1197 q 314 1186 314 1197 l 314 863 q 301 850 314 850 l 256 850 q 243 863 243 850 l 243 1186 q 232 1197 243 1197 l 82 1197 q 69 1210 69 1197 l 69 1256 q 82 1268 69 1268 l 475 1268 m 557 1256 q 568 1268 557 1268 l 615 1268 q 635 1258 626 1268 l 836 1026 q 1036 1258 903 1103 q 1056 1268 1043 1268 l 1103 1268 q 1114 1256 1114 1268 l 1114 863 q 1103 850 1114 850 l 1056 850 q 1044 863 1044 850 l 1044 1150 q 1036 1153 1044 1161 q 947 1049 1014 1126 q 843 928 879 971 q 828 928 836 919 q 734 1038 799 963 q 635 1153 669 1113 q 626 1150 626 1158 l 626 863 q 615 850 626 850 l 568 850 q 557 863 557 850 l 557 1256 z "}}}
